<?xml version="1.0" encoding="UTF-8"?>
<svg version="1.1" xmlns="http://www.w3.org/2000/svg" width="500" height="500">
<path d="M0 0 C2.97310861 -0.03917139 5.93025428 0.00124065 8.90234375 0.0859375 C10.000625 0.11429687 11.09890625 0.14265625 12.23046875 0.171875 C26.84827758 0.86015748 41.50777036 4.42019594 52.90234375 14.0859375 C52.90234375 14.7459375 52.90234375 15.4059375 52.90234375 16.0859375 C53.56234375 16.0859375 54.22234375 16.0859375 54.90234375 16.0859375 C54.90234375 16.7459375 54.90234375 17.4059375 54.90234375 18.0859375 C55.56234375 18.0859375 56.22234375 18.0859375 56.90234375 18.0859375 C64.422802 28.05871909 65.87486866 37.87254028 64.90234375 50.0859375 C62.50861732 65.49253914 54.33173167 78.55162213 42.90234375 89.0859375 C41.91234375 89.4159375 40.92234375 89.7459375 39.90234375 90.0859375 C39.90234375 90.7459375 39.90234375 91.4059375 39.90234375 92.0859375 C20.06772602 108.40206652 -4.22494409 116.48762097 -29.09765625 121.0859375 C-28.43765625 121.4159375 -27.77765625 121.7459375 -27.09765625 122.0859375 C-27.09765625 122.7459375 -27.09765625 123.4059375 -27.09765625 124.0859375 C-26.43765625 124.0859375 -25.77765625 124.0859375 -25.09765625 124.0859375 C-25.09765625 124.7459375 -25.09765625 125.4059375 -25.09765625 126.0859375 C-24.50742676 126.34947021 -23.91719727 126.61300293 -23.30908203 126.88452148 C-21.00605098 128.13570451 -19.53404183 129.43398728 -17.71484375 131.30859375 C-16.80025391 132.23961914 -16.80025391 132.23961914 -15.8671875 133.18945312 C-15.24199219 133.83591797 -14.61679688 134.48238281 -13.97265625 135.1484375 C-12.72229551 136.4331768 -11.46979109 137.71583431 -10.21484375 138.99609375 C-9.66425293 139.56465088 -9.11366211 140.13320801 -8.54638672 140.71899414 C-7.12351613 142.19323655 -7.12351613 142.19323655 -5.09765625 143.0859375 C-5.09765625 143.7459375 -5.09765625 144.4059375 -5.09765625 145.0859375 C-4.43765625 145.0859375 -3.77765625 145.0859375 -3.09765625 145.0859375 C-3.09765625 145.7459375 -3.09765625 146.4059375 -3.09765625 147.0859375 C-2.43765625 147.0859375 -1.77765625 147.0859375 -1.09765625 147.0859375 C-1.09765625 147.7459375 -1.09765625 148.4059375 -1.09765625 149.0859375 C-0.370625 149.33601562 0.35640625 149.58609375 1.10546875 149.84375 C4.13684718 151.19008847 6.15100797 152.79474802 8.65234375 154.9609375 C13.12411365 158.65384057 17.47408724 161.09295443 22.90234375 163.0859375 C22.98355469 162.42207031 23.06476563 161.75820313 23.1484375 161.07421875 C24.15141931 157.09866907 25.99284603 153.84821824 27.96484375 150.2734375 C28.78950766 148.752248 29.61238465 147.2300886 30.43359375 145.70703125 C30.84867188 144.9372998 31.26375 144.16756836 31.69140625 143.37451172 C33.18257705 140.55631916 34.59037347 137.70270052 35.98828125 134.83740234 C51.34448234 103.3648682 51.34448234 103.3648682 65.90234375 96.0859375 C68.02470182 95.9629437 70.15145838 95.91038068 72.27734375 95.8984375 C73.41945313 95.88425781 74.5615625 95.87007813 75.73828125 95.85546875 C78.74171191 96.07423716 80.38160309 96.51513113 82.90234375 98.0859375 C82.90234375 99.0759375 82.90234375 100.0659375 82.90234375 101.0859375 C77.15234375 104.0859375 77.15234375 104.0859375 74.90234375 104.0859375 C74.90234375 104.7459375 74.90234375 105.4059375 74.90234375 106.0859375 C74.24234375 106.0859375 73.58234375 106.0859375 72.90234375 106.0859375 C72.90234375 106.7459375 72.90234375 107.4059375 72.90234375 108.0859375 C72.24234375 108.0859375 71.58234375 108.0859375 70.90234375 108.0859375 C70.51369141 109.15714844 70.51369141 109.15714844 70.1171875 110.25 C68.83376532 113.24602734 67.27053301 115.75046201 65.46484375 118.4609375 C62.78928009 122.58019072 60.63562364 126.49784367 58.90234375 131.0859375 C58.24234375 131.0859375 57.58234375 131.0859375 56.90234375 131.0859375 C56.78536133 131.63685059 56.66837891 132.18776367 56.54785156 132.75537109 C55.80223519 135.44737332 54.74219802 137.8369766 53.57421875 140.375 C53.10371094 141.39980469 52.63320313 142.42460937 52.1484375 143.48046875 C51.65472656 144.54652344 51.16101563 145.61257812 50.65234375 146.7109375 C50.17410156 147.75378906 49.69585937 148.79664063 49.203125 149.87109375 C46.22346392 156.33913854 43.13159509 162.7388493 39.90234375 169.0859375 C42.43162365 170.35057745 44.20240737 170.21534732 47.03125 170.21875 C48.06701172 170.22003906 49.10277344 170.22132813 50.16992188 170.22265625 C51.8009082 170.21685547 51.8009082 170.21685547 53.46484375 170.2109375 C55.05522461 170.21673828 55.05522461 170.21673828 56.67773438 170.22265625 C62.83617988 170.21505792 68.79658274 169.89320496 74.90234375 169.0859375 C75.03334473 168.51762207 75.1643457 167.94930664 75.29931641 167.36376953 C77.65906446 158.45022727 82.23963525 150.3078156 86.52734375 142.2109375 C87.68633491 140.00528031 88.8451947 137.79955409 90.00390625 135.59375 C90.51260254 134.63098145 91.02129883 133.66821289 91.54541016 132.67626953 C92.69009268 130.49111631 93.80885855 128.2970337 94.90234375 126.0859375 C95.56234375 126.0859375 96.22234375 126.0859375 96.90234375 126.0859375 C97.010625 125.51230469 97.11890625 124.93867188 97.23046875 124.34765625 C97.99423745 121.77659766 99.10660194 120.08558248 100.65234375 117.8984375 C102.72945598 114.88613256 104.58646942 111.8921556 106.27734375 108.6484375 C115.57066073 91.6742087 133.26022596 73.16379771 151.21484375 65.7109375 C158.06522265 64.54985633 164.93024406 63.8866692 171.46484375 66.5234375 C175.22742833 70.47897513 177.71167637 74.73138323 178.02734375 80.28515625 C177.826321 82.61785775 177.41860532 84.80232794 176.90234375 87.0859375 C176.73605469 87.92898437 176.56976563 88.77203125 176.3984375 89.640625 C173.54975097 102.00284958 166.45458808 112.12044729 158.90234375 122.0859375 C158.24234375 123.0759375 157.58234375 124.0659375 156.90234375 125.0859375 C156.24234375 125.0859375 155.58234375 125.0859375 154.90234375 125.0859375 C154.64066406 125.67503906 154.37898438 126.26414062 154.109375 126.87109375 C152.83811625 129.20379184 151.50003844 130.68948118 149.58984375 132.5234375 C148.96851563 133.12671875 148.3471875 133.73 147.70703125 134.3515625 C147.11148437 134.92390625 146.5159375 135.49625 145.90234375 136.0859375 C145.01546875 136.9728125 144.12859375 137.8596875 143.21484375 138.7734375 C142.45171875 139.5365625 141.68859375 140.2996875 140.90234375 141.0859375 C139.81953125 142.230625 139.81953125 142.230625 138.71484375 143.3984375 C136.90234375 145.0859375 136.90234375 145.0859375 134.90234375 145.0859375 C134.90234375 145.7459375 134.90234375 146.4059375 134.90234375 147.0859375 C133.25234375 147.7459375 131.60234375 148.4059375 129.90234375 149.0859375 C129.90234375 149.7459375 129.90234375 150.4059375 129.90234375 151.0859375 C124.49057904 155.0859375 124.49057904 155.0859375 121.90234375 155.0859375 C121.90234375 155.7459375 121.90234375 156.4059375 121.90234375 157.0859375 C115.50054893 161.57204372 108.24790621 165.00500822 101.27734375 168.5234375 C100.57867187 168.87744629 99.88 169.23145508 99.16015625 169.59619141 C94.14860195 172.0859375 94.14860195 172.0859375 91.90234375 172.0859375 C91.73992187 173.33503906 91.73992187 173.33503906 91.57421875 174.609375 C90.82422978 178.49013189 89.57455176 182.04015124 88.15234375 185.7109375 C87.88357422 186.42185547 87.61480469 187.13277344 87.33789062 187.86523438 C85.82139936 191.84109445 84.17133354 195.71483646 82.40234375 199.5859375 C76.75867715 213.02411433 71.37618626 230.41855795 73.90234375 245.0859375 C75.790187 249.10746801 75.790187 249.10746801 79.58984375 251.0859375 C87.84013916 251.0859375 92.65805114 247.0821987 98.4296875 241.640625 C102.6497581 237.28055206 107.16817201 232.55428098 109.90234375 227.0859375 C111.22234375 227.4159375 112.54234375 227.7459375 113.90234375 228.0859375 C109.92976438 241.16871092 99.93951916 253.75842336 88.25 260.87109375 C81.35454282 264.43929206 73.78016816 267.75961448 65.90234375 266.0859375 C60.8954597 263.91213019 56.70024312 260.82084412 53.90234375 256.0859375 C47.41849555 239.22084601 55.82335565 217.20074624 61.46484375 200.9609375 C61.96519922 199.49513486 62.46455157 198.02898941 62.96289062 196.5625 C63.87350536 193.88700221 64.78971216 191.21358361 65.71313477 188.54248047 C66.79552385 185.39641917 67.85596859 182.24413202 68.90234375 179.0859375 C67.63261719 179.2303125 66.36289062 179.3746875 65.0546875 179.5234375 C54.61309337 180.66529604 44.40833515 181.37246454 33.90234375 181.0859375 C33.56501221 181.7157251 33.22768066 182.3455127 32.88012695 182.99438477 C31.32996314 185.88174719 29.7724699 188.76509438 28.21484375 191.6484375 C27.68439453 192.63908203 27.15394531 193.62972656 26.60742188 194.65039062 C24.27561501 198.95636527 21.96352985 203.15605953 19.0703125 207.11328125 C16.78569744 209.9300289 16.78569744 209.9300289 15.90234375 213.0859375 C15.24234375 213.0859375 14.58234375 213.0859375 13.90234375 213.0859375 C13.5465625 214.11267578 13.5465625 214.11267578 13.18359375 215.16015625 C11.63725481 218.69127778 9.59854309 221.75148733 7.40234375 224.8984375 C6.99886719 225.49591797 6.59539062 226.09339844 6.1796875 226.70898438 C5.14194593 228.20737361 4.02758578 229.65209364 2.90234375 231.0859375 C2.24234375 231.0859375 1.58234375 231.0859375 0.90234375 231.0859375 C0.90234375 231.7459375 0.90234375 232.4059375 0.90234375 233.0859375 C0.24234375 233.0859375 -0.41765625 233.0859375 -1.09765625 233.0859375 C-1.47470703 233.93671875 -1.47470703 233.93671875 -1.859375 234.8046875 C-5.0624996 240.70571201 -10.56024932 246.34004458 -16.09765625 250.0859375 C-16.75765625 250.0859375 -17.41765625 250.0859375 -18.09765625 250.0859375 C-18.09765625 250.7459375 -18.09765625 251.4059375 -18.09765625 252.0859375 C-34.74327729 266.07866269 -53.6670987 274.31817423 -75.47265625 274.5234375 C-76.82738037 274.53890625 -76.82738037 274.53890625 -78.20947266 274.5546875 C-88.72215378 274.41582985 -98.27561166 271.53387481 -106.04296875 264.265625 C-113.43312168 256.3807338 -114.69037465 249.57605252 -114.4453125 238.8359375 C-113.60946194 229.82002136 -109.55995947 221.28057117 -104.09765625 214.0859375 C-103.43765625 214.0859375 -102.77765625 214.0859375 -102.09765625 214.0859375 C-101.84886719 213.50457031 -101.60007812 212.92320312 -101.34375 212.32421875 C-94.18273827 199.46133561 -75.31729235 191.72502829 -61.91015625 187.8984375 C-49.32510374 184.79693573 -36.72385982 183.83664025 -23.8107605 183.62179565 C-11.48834265 183.41018785 0.69164726 182.85485696 12.90234375 181.0859375 C13.56234375 178.7759375 14.22234375 176.4659375 14.90234375 174.0859375 C14.11859375 174.0240625 13.33484375 173.9621875 12.52734375 173.8984375 C7.53892484 172.78034361 3.39582627 170.46614854 -1.09765625 168.0859375 C-2.42917924 167.41566237 -3.76186973 166.74767506 -5.09765625 166.0859375 C-5.09765625 165.4259375 -5.09765625 164.7659375 -5.09765625 164.0859375 C-5.6596875 163.98152344 -6.22171875 163.87710938 -6.80078125 163.76953125 C-9.52146096 162.95980515 -11.49023432 161.72390412 -13.84765625 160.1484375 C-14.646875 159.62378906 -15.44609375 159.09914063 -16.26953125 158.55859375 C-16.8728125 158.07261719 -17.47609375 157.58664062 -18.09765625 157.0859375 C-18.09765625 156.4259375 -18.09765625 155.7659375 -18.09765625 155.0859375 C-18.75765625 155.0859375 -19.41765625 155.0859375 -20.09765625 155.0859375 C-20.09765625 154.4259375 -20.09765625 153.7659375 -20.09765625 153.0859375 C-20.66838867 152.83972656 -21.23912109 152.59351563 -21.82714844 152.33984375 C-24.47608435 150.87694753 -26.28314171 149.15948431 -28.42578125 147.0234375 C-29.225 146.22679687 -30.02421875 145.43015625 -30.84765625 144.609375 C-31.67265625 143.77664062 -32.49765625 142.94390625 -33.34765625 142.0859375 C-34.188125 141.25320312 -35.02859375 140.42046875 -35.89453125 139.5625 C-36.68859375 138.76585937 -37.48265625 137.96921875 -38.30078125 137.1484375 C-39.02942383 136.41753906 -39.75806641 135.68664062 -40.50878906 134.93359375 C-42.09765625 133.0859375 -42.09765625 133.0859375 -42.09765625 131.0859375 C-42.75765625 131.0859375 -43.41765625 131.0859375 -44.09765625 131.0859375 C-44.09765625 130.4259375 -44.09765625 129.7659375 -44.09765625 129.0859375 C-44.75765625 129.0859375 -45.41765625 129.0859375 -46.09765625 129.0859375 C-46.09765625 128.4259375 -46.09765625 127.7659375 -46.09765625 127.0859375 C-46.75765625 127.0859375 -47.41765625 127.0859375 -48.09765625 127.0859375 C-48.09765625 126.4259375 -48.09765625 125.7659375 -48.09765625 125.0859375 C-49.74765625 124.4259375 -51.39765625 123.7659375 -53.09765625 123.0859375 C-53.37005127 123.96354736 -53.64244629 124.84115723 -53.9230957 125.74536133 C-55.02518459 128.87982033 -56.31095111 131.61833534 -57.890625 134.53515625 C-58.71336914 136.05592773 -58.71336914 136.05592773 -59.55273438 137.60742188 C-60.12443359 138.65220703 -60.69613281 139.69699219 -61.28515625 140.7734375 C-61.83751953 141.79888672 -62.38988281 142.82433594 -62.95898438 143.88085938 C-70.96761927 158.60521366 -70.96761927 158.60521366 -75.09765625 164.0859375 C-75.75765625 164.0859375 -76.41765625 164.0859375 -77.09765625 164.0859375 C-77.38640625 164.8490625 -77.67515625 165.6121875 -77.97265625 166.3984375 C-79.09765625 169.0859375 -79.09765625 169.0859375 -81.09765625 172.0859375 C-81.75765625 172.0859375 -82.41765625 172.0859375 -83.09765625 172.0859375 C-83.75765625 173.7359375 -84.41765625 175.3859375 -85.09765625 177.0859375 C-85.75765625 177.0859375 -86.41765625 177.0859375 -87.09765625 177.0859375 C-87.09765625 177.7459375 -87.09765625 178.4059375 -87.09765625 179.0859375 C-87.75765625 179.0859375 -88.41765625 179.0859375 -89.09765625 179.0859375 C-89.3709375 179.68148437 -89.64421875 180.27703125 -89.92578125 180.890625 C-96.10841848 192.47276541 -112.17833494 201.16420678 -124.09765625 205.0859375 C-124.82984375 205.32957031 -125.56203125 205.57320312 -126.31640625 205.82421875 C-136.70944189 208.67454756 -149.16211986 208.33720067 -159.09765625 204.0859375 C-165.47192526 200.4358071 -169.40269513 195.98434808 -172.34765625 189.2109375 C-174.06708563 182.04664841 -173.31572388 175.68710186 -170.09765625 169.0859375 C-168.2741698 166.56182394 -166.29101075 164.29348847 -164.09765625 162.0859375 C-163.10765625 162.4159375 -162.11765625 162.7459375 -161.09765625 163.0859375 C-161.21625 163.91996094 -161.33484375 164.75398437 -161.45703125 165.61328125 C-162.31751728 173.12532431 -162.42988829 178.69139692 -158.09765625 185.0859375 C-154.23811571 189.38656838 -149.68903077 190.51792485 -144.09765625 191.0859375 C-130.85846265 191.0859375 -121.01822876 184.9559689 -111.5078125 176.1875 C-110.09765625 175.0859375 -110.09765625 175.0859375 -108.09765625 175.0859375 C-108.09765625 174.4259375 -108.09765625 173.7659375 -108.09765625 173.0859375 C-107.43765625 173.0859375 -106.77765625 173.0859375 -106.09765625 173.0859375 C-105.67685791 172.20131836 -105.67685791 172.20131836 -105.24755859 171.29882812 C-104.19076259 169.26511285 -103.05673176 167.5205614 -101.69921875 165.6796875 C-101.22564941 165.02814697 -100.75208008 164.37660645 -100.26416016 163.70532227 C-99.50111572 162.65622681 -99.50111572 162.65622681 -98.72265625 161.5859375 C-92.46071737 152.85610297 -86.93353721 143.76161648 -81.51416016 134.4921875 C-79.53012828 131.12186378 -77.50044351 127.77950831 -75.46875 124.43774414 C-73.13074732 120.42742011 -71.12364442 116.25987967 -69.09765625 112.0859375 C-68.32882703 110.5432704 -67.55815865 109.00151772 -66.78515625 107.4609375 C-66.22828125 106.3471875 -65.67140625 105.2334375 -65.09765625 104.0859375 C-64.43765625 104.0859375 -63.77765625 104.0859375 -63.09765625 104.0859375 C-63.09765625 102.7659375 -63.09765625 101.4459375 -63.09765625 100.0859375 C-62.43765625 100.0859375 -61.77765625 100.0859375 -61.09765625 100.0859375 C-60.98808594 99.36664063 -60.87851563 98.64734375 -60.765625 97.90625 C-60.04614035 94.86842594 -58.95077175 92.67015637 -57.41015625 89.9609375 C-56.86359375 88.99027344 -56.31703125 88.01960938 -55.75390625 87.01953125 C-55.20734375 86.05144531 -54.66078125 85.08335937 -54.09765625 84.0859375 C-53.20074329 82.39901108 -52.30491218 80.71150901 -51.41015625 79.0234375 C-44.50534352 66.40679015 -36.92490967 54.43526332 -28.09765625 43.0859375 C-27.43765625 42.0959375 -26.77765625 41.1059375 -26.09765625 40.0859375 C-25.43765625 40.0859375 -24.77765625 40.0859375 -24.09765625 40.0859375 C-23.83984375 39.50585938 -23.58203125 38.92578125 -23.31640625 38.328125 C-18.67940538 29.79723237 -9.56074181 24.44256264 -0.91015625 20.7109375 C2.42363056 19.97009599 5.49830739 19.94977605 8.90234375 20.0859375 C9.23234375 21.4059375 9.56234375 22.7259375 9.90234375 24.0859375 C8.91234375 24.0859375 7.92234375 24.0859375 6.90234375 24.0859375 C6.90234375 24.7459375 6.90234375 25.4059375 6.90234375 26.0859375 C5.3984375 27.53125 5.3984375 27.53125 3.33984375 29.2109375 C-5.39348691 36.72068418 -11.07281399 45.45229298 -16.97558594 55.23242188 C-17.91239816 56.779915 -18.86624894 58.31707693 -19.82421875 59.8515625 C-23.68637907 66.08884816 -26.93953472 72.60306111 -30.16357422 79.18554688 C-31.76956394 82.45293423 -33.40411202 85.70600622 -35.03515625 88.9609375 C-35.70065164 90.29160126 -36.36601503 91.62233103 -37.03125 92.953125 C-40.38671875 99.6640625 -43.7421875 106.375 -47.09765625 113.0859375 C-24.8179594 114.63135 -3.21910016 105.39807239 14.30810547 92.33740234 C18.70275098 89.0859375 18.70275098 89.0859375 20.90234375 89.0859375 C21.12921875 88.5496875 21.35609375 88.0134375 21.58984375 87.4609375 C23.35804464 84.26133589 25.43904578 81.79556527 27.90234375 79.0859375 C28.56234375 79.0859375 29.22234375 79.0859375 29.90234375 79.0859375 C30.17304688 78.35632813 30.44375 77.62671875 30.72265625 76.875 C31.86345938 74.17786943 33.19215128 71.91675381 34.77734375 69.4609375 C41.34876747 58.71208061 43.95207725 47.62442095 42.90234375 35.0859375 C40.79709048 26.71069079 36.62450731 20.67815416 29.40234375 15.8984375 C10.64872646 5.30097921 -14.0408467 8.4550928 -33.96484375 13.9230957 C-56.64235645 20.48677859 -77.741338 30.40604641 -96.91088867 44.24194336 C-100.89173743 47.0859375 -100.89173743 47.0859375 -103.09765625 47.0859375 C-103.09765625 47.7459375 -103.09765625 48.4059375 -103.09765625 49.0859375 C-104.5390625 50.28515625 -104.5390625 50.28515625 -106.66015625 51.7734375 C-111.53644714 55.44040825 -115.79917589 59.5866539 -120.09765625 63.8984375 C-120.76869385 64.5689917 -121.43973145 65.2395459 -122.13110352 65.93041992 C-125.52405997 69.20456109 -125.52405997 69.20456109 -128.09765625 73.0859375 C-128.75765625 73.0859375 -129.41765625 73.0859375 -130.09765625 73.0859375 C-130.35933594 73.818125 -130.62101562 74.5503125 -130.890625 75.3046875 C-132.11431002 78.12431123 -133.53717722 80.16061654 -135.41015625 82.5859375 C-141.31642208 90.78565937 -145.21843214 100.78665061 -145.34765625 110.8984375 C-145.3734375 112.10113281 -145.39921875 113.30382812 -145.42578125 114.54296875 C-145.06963495 118.38850084 -143.95427955 120.7391297 -142.09765625 124.0859375 C-142.09765625 124.7459375 -142.09765625 125.4059375 -142.09765625 126.0859375 C-141.43765625 126.0859375 -140.77765625 126.0859375 -140.09765625 126.0859375 C-140.09765625 126.7459375 -140.09765625 127.4059375 -140.09765625 128.0859375 C-131.23742982 130.93199819 -131.23742982 130.93199819 -122.09765625 130.0859375 C-121.35128906 129.93253906 -120.60492188 129.77914062 -119.8359375 129.62109375 C-110.94212648 127.48490366 -103.82514455 122.16982287 -97.66015625 115.5234375 C-96.81453125 114.7190625 -95.96890625 113.9146875 -95.09765625 113.0859375 C-92.9375 113.43359375 -92.9375 113.43359375 -91.09765625 114.0859375 C-95.73488775 122.4009733 -95.73488775 122.4009733 -98.09765625 125.0859375 C-98.75765625 125.0859375 -99.41765625 125.0859375 -100.09765625 125.0859375 C-100.09765625 125.7459375 -100.09765625 126.4059375 -100.09765625 127.0859375 C-110.88658159 136.23268599 -122.39668413 140.93516241 -136.734375 140.47265625 C-144.53331546 139.57591397 -152.42565006 136.68389661 -158.09765625 131.0859375 C-164.58006101 122.89217788 -165.88594864 114.32081578 -165.09765625 104.0859375 C-163.64349209 94.29552535 -158.64936266 85.73009744 -154.09765625 77.0859375 C-153.76765625 76.4259375 -153.43765625 75.7659375 -153.09765625 75.0859375 C-152.43765625 75.0859375 -151.77765625 75.0859375 -151.09765625 75.0859375 C-150.80890625 74.3228125 -150.52015625 73.5596875 -150.22265625 72.7734375 C-149.09765625 70.0859375 -149.09765625 70.0859375 -147.09765625 67.0859375 C-146.43765625 67.0859375 -145.77765625 67.0859375 -145.09765625 67.0859375 C-144.86691406 66.53164062 -144.63617188 65.97734375 -144.3984375 65.40625 C-127.61764288 35.47294068 -78.2095206 16.46804339 -47.29516602 7.5637207 C-31.55097214 3.16967617 -16.35116735 0.45362633 0 0 Z M149.90234375 82.0859375 C149.90234375 82.7459375 149.90234375 83.4059375 149.90234375 84.0859375 C149.34546875 84.3128125 148.78859375 84.5396875 148.21484375 84.7734375 C145.24074787 86.46143786 143.1822551 88.55270267 140.90234375 91.0859375 C140.90234375 91.7459375 140.90234375 92.4059375 140.90234375 93.0859375 C140.24234375 93.0859375 139.58234375 93.0859375 138.90234375 93.0859375 C137.55217406 94.53136688 137.55217406 94.53136688 136.21484375 96.4609375 C135.68608643 97.19062744 135.1573291 97.92031738 134.61254883 98.67211914 C134.04818115 99.4686792 133.48381348 100.26523926 132.90234375 101.0859375 C132.31928467 101.90247803 131.73622559 102.71901855 131.13549805 103.56030273 C125.72582291 111.2072898 120.71648164 119.05395916 115.90234375 127.0859375 C115.48355957 127.78074219 115.06477539 128.47554687 114.63330078 129.19140625 C110.01840922 136.86600062 105.52528164 144.6109485 101.21484375 152.4609375 C100.68769775 153.39788452 100.68769775 153.39788452 100.14990234 154.35375977 C99.32101635 155.89076832 98.6016193 157.48579344 97.90234375 159.0859375 C98.23234375 160.0759375 98.56234375 161.0659375 98.90234375 162.0859375 C113.38907935 154.34976326 113.38907935 154.34976326 126.90234375 145.0859375 C126.90234375 144.4259375 126.90234375 143.7659375 126.90234375 143.0859375 C127.464375 142.828125 128.02640625 142.5703125 128.60546875 142.3046875 C131.16938954 140.94423973 133.3546074 139.35804788 135.65234375 137.5859375 C136.85117187 136.67328125 136.85117187 136.67328125 138.07421875 135.7421875 C138.6775 135.195625 139.28078125 134.6490625 139.90234375 134.0859375 C139.90234375 133.4259375 139.90234375 132.7659375 139.90234375 132.0859375 C140.56234375 132.0859375 141.22234375 132.0859375 141.90234375 132.0859375 C141.90234375 131.4259375 141.90234375 130.7659375 141.90234375 130.0859375 C142.56234375 130.0859375 143.22234375 130.0859375 143.90234375 130.0859375 C143.90234375 129.4259375 143.90234375 128.7659375 143.90234375 128.0859375 C144.56234375 128.0859375 145.22234375 128.0859375 145.90234375 128.0859375 C148.3005468 125.44909003 148.3005468 125.44909003 148.90234375 122.0859375 C149.56234375 122.0859375 150.22234375 122.0859375 150.90234375 122.0859375 C151.56234375 120.4359375 152.22234375 118.7859375 152.90234375 117.0859375 C153.56234375 117.0859375 154.22234375 117.0859375 154.90234375 117.0859375 C156.61238634 114.70095774 158.18135961 112.33184999 159.71484375 109.8359375 C160.16263184 109.10810059 160.61041992 108.38026367 161.07177734 107.63037109 C169.24474533 94.28510454 169.24474533 94.28510454 169.90234375 79.0859375 C168.00876422 76.65521076 167.31511513 76.15313284 164.21484375 75.6484375 C158.73104855 76.37271234 154.45258819 79.05244121 149.90234375 82.0859375 Z M-18.19848633 188.20288086 C-20.49347584 188.3325294 -22.78872992 188.457582 -25.08422852 188.57788086 C-42.81179432 189.37424495 -42.81179432 189.37424495 -60.09765625 193.0859375 C-61.94230469 193.65054688 -61.94230469 193.65054688 -63.82421875 194.2265625 C-71.20280391 197.050711 -77.60501612 200.59538327 -84.09765625 205.0859375 C-85.08765625 205.7459375 -86.07765625 206.4059375 -87.09765625 207.0859375 C-87.09765625 207.7459375 -87.09765625 208.4059375 -87.09765625 209.0859375 C-87.75765625 209.0859375 -88.41765625 209.0859375 -89.09765625 209.0859375 C-89.09765625 209.7459375 -89.09765625 210.4059375 -89.09765625 211.0859375 C-89.75765625 211.0859375 -90.41765625 211.0859375 -91.09765625 211.0859375 C-97.81722378 219.38909738 -102.52133455 227.81308841 -102.16015625 238.6484375 C-101.21483893 245.90272045 -97.70205823 250.96986089 -92.09765625 255.5234375 C-82.52394551 260.50974518 -71.81248816 260.43235541 -61.53515625 257.5859375 C-48.40050778 252.97193002 -38.36194595 245.21733352 -28.09765625 236.0859375 C-27.08445312 235.26867187 -26.07125 234.45140625 -25.02734375 233.609375 C-22.07028854 231.06236477 -19.67720054 228.42736169 -17.22265625 225.3984375 C-16.44148438 224.44582031 -15.6603125 223.49320313 -14.85546875 222.51171875 C-12.9020645 220.31530703 -12.9020645 220.31530703 -13.09765625 218.0859375 C-12.43765625 218.0859375 -11.77765625 218.0859375 -11.09765625 218.0859375 C-8.1352993 214.45270061 -8.1352993 214.45270061 -7.09765625 210.0859375 C-6.43765625 210.0859375 -5.77765625 210.0859375 -5.09765625 210.0859375 C-3.47925222 208.00038725 -3.47925222 208.00038725 -1.83984375 205.30859375 C-0.90205078 203.82649414 -0.90205078 203.82649414 0.0546875 202.31445312 C0.70566406 201.26966797 1.35664063 200.22488281 2.02734375 199.1484375 C2.68605469 198.10751953 3.34476562 197.06660156 4.0234375 195.99414062 C7.20843777 191.80401 7.20843777 191.80401 8.90234375 187.0859375 C-0.13589556 186.95115255 -9.17967844 187.68556065 -18.19848633 188.20288086 Z " fill="#7E1B1E" transform="translate(255.09765625,100.9140625)"/>
<path d="M0 0 C3.76258458 3.95553763 6.24683262 8.20794573 6.5625 13.76171875 C6.36147725 16.09442025 5.95376157 18.27889044 5.4375 20.5625 C5.18806641 21.82707031 5.18806641 21.82707031 4.93359375 23.1171875 C2.08490722 35.47941208 -5.01025567 45.59700979 -12.5625 55.5625 C-13.2225 56.5525 -13.8825 57.5425 -14.5625 58.5625 C-15.2225 58.5625 -15.8825 58.5625 -16.5625 58.5625 C-16.95501953 59.44615234 -16.95501953 59.44615234 -17.35546875 60.34765625 C-18.6267275 62.68035434 -19.96480531 64.16604368 -21.875 66 C-22.49632812 66.60328125 -23.11765625 67.2065625 -23.7578125 67.828125 C-24.35335937 68.40046875 -24.94890625 68.9728125 -25.5625 69.5625 C-26.8928125 70.8928125 -26.8928125 70.8928125 -28.25 72.25 C-29.3946875 73.3946875 -29.3946875 73.3946875 -30.5625 74.5625 C-31.284375 75.325625 -32.00625 76.08875 -32.75 76.875 C-34.5625 78.5625 -34.5625 78.5625 -36.5625 78.5625 C-36.5625 79.2225 -36.5625 79.8825 -36.5625 80.5625 C-39.0375 81.5525 -39.0375 81.5525 -41.5625 82.5625 C-41.5625 83.2225 -41.5625 83.8825 -41.5625 84.5625 C-46.97426471 88.5625 -46.97426471 88.5625 -49.5625 88.5625 C-49.5625 89.2225 -49.5625 89.8825 -49.5625 90.5625 C-54.73828125 93.78515625 -54.73828125 93.78515625 -56.5625 94.5625 C-57.5525 94.2325 -58.5425 93.9025 -59.5625 93.5625 C-59.8925 92.9025 -60.2225 92.2425 -60.5625 91.5625 C-62.58713255 90.91036708 -62.58713255 90.91036708 -64.5625 90.5625 C-61.60916001 88.55504745 -58.64903968 86.55783174 -55.6875 84.5625 C-54.84574219 83.99015625 -54.00398438 83.4178125 -53.13671875 82.828125 C-52.33105469 82.28671875 -51.52539062 81.7453125 -50.6953125 81.1875 C-49.95168457 80.68476563 -49.20805664 80.18203125 -48.44189453 79.6640625 C-46.5625 78.5625 -46.5625 78.5625 -44.5625 78.5625 C-44.5625 77.9025 -44.5625 77.2425 -44.5625 76.5625 C-42.48046875 74.65234375 -42.48046875 74.65234375 -39.75 72.5 C-38.85667969 71.78714844 -37.96335937 71.07429688 -37.04296875 70.33984375 C-34.5625 68.5625 -34.5625 68.5625 -31.5625 67.5625 C-31.5625 66.9025 -31.5625 66.2425 -31.5625 65.5625 C-30.9025 65.5625 -30.2425 65.5625 -29.5625 65.5625 C-29.5625 64.9025 -29.5625 64.2425 -29.5625 63.5625 C-28.9025 63.5625 -28.2425 63.5625 -27.5625 63.5625 C-27.5625 62.9025 -27.5625 62.2425 -27.5625 61.5625 C-26.9025 61.5625 -26.2425 61.5625 -25.5625 61.5625 C-25.253125 60.94375 -24.94375 60.325 -24.625 59.6875 C-23.9375 58.3125 -23.25 56.9375 -22.5625 55.5625 C-21.9025 55.5625 -21.2425 55.5625 -20.5625 55.5625 C-19.9025 53.9125 -19.2425 52.2625 -18.5625 50.5625 C-17.9025 50.5625 -17.2425 50.5625 -16.5625 50.5625 C-16.16998047 49.48162109 -16.16998047 49.48162109 -15.76953125 48.37890625 C-14.52501465 45.47503418 -13.02494211 43.10928296 -11.25 40.5 C-5.83813711 32.07651466 -0.60325885 22.91554272 -2.5625 12.5625 C-4.32253366 10.36014156 -4.32253366 10.36014156 -6.515625 10.4453125 C-12.03275262 11.02705045 -15.14998209 12.22620597 -19.5625 15.5625 C-20.2225 15.5625 -20.8825 15.5625 -21.5625 15.5625 C-21.5625 16.2225 -21.5625 16.8825 -21.5625 17.5625 C-22.2225 17.5625 -22.8825 17.5625 -23.5625 17.5625 C-23.6875 15.1875 -23.6875 15.1875 -23.5625 12.5625 C-22.9025 11.9025 -22.2425 11.2425 -21.5625 10.5625 C-22.58010473 8.42374923 -22.58010473 8.42374923 -24.5625 6.5625 C-28.18813814 6.22869186 -28.18813814 6.22869186 -31.5625 6.5625 C-23.89860455 -1.86247514 -10.47738731 -4.22771768 0 0 Z " fill="#83282B" transform="translate(426.5625,167.4375)"/>
<path d="M0 0 C0.77214844 0.00902344 1.54429687 0.01804687 2.33984375 0.02734375 C2.90832031 0.03894531 3.47679687 0.05054688 4.0625 0.0625 C3.4025 1.0525 2.7425 2.0425 2.0625 3.0625 C2.37090599 5.21524948 2.37090599 5.21524948 3.0625 7.0625 C1.67538818 6.80098145 1.67538818 6.80098145 0.26025391 6.53417969 C-4.87778653 5.80708788 -9.94010194 6.20408572 -15.1015625 6.515625 C-16.17062836 6.57651306 -17.23969421 6.63740112 -18.34115601 6.70013428 C-20.5989067 6.83113939 -22.85644563 6.96583984 -25.11376953 7.10400391 C-28.52965084 7.31051407 -31.94622234 7.49772862 -35.36328125 7.68359375 C-51.35225124 8.58658227 -51.35225124 8.58658227 -66.9375 12.0625 C-68.16726562 12.43890625 -69.39703125 12.8153125 -70.6640625 13.203125 C-77.19535535 15.70297294 -82.91405532 18.66370986 -88.6953125 22.609375 C-90.9375 24.0625 -90.9375 24.0625 -93.9375 25.0625 C-93.9375 25.7225 -93.9375 26.3825 -93.9375 27.0625 C-94.5975 27.0625 -95.2575 27.0625 -95.9375 27.0625 C-95.9375 27.7225 -95.9375 28.3825 -95.9375 29.0625 C-96.5975 29.0625 -97.2575 29.0625 -97.9375 29.0625 C-98.21335938 29.63484375 -98.48921875 30.2071875 -98.7734375 30.796875 C-99.93217848 33.05214267 -101.20625706 35.17106378 -102.5625 37.3125 C-103.00851563 38.01890625 -103.45453125 38.7253125 -103.9140625 39.453125 C-104.25179687 39.98421875 -104.58953125 40.5153125 -104.9375 41.0625 C-106.24973496 37.12579512 -105.18046256 34.93761856 -103.9375 31.0625 C-104.5975 31.0625 -105.2575 31.0625 -105.9375 31.0625 C-106.2675 30.0725 -106.5975 29.0825 -106.9375 28.0625 C-84.52141534 6.75338248 -57.68516155 2.04731851 -27.875 1.5 C-25.70055463 1.45562356 -23.52623063 1.40877912 -21.35194397 1.35719299 C-19.40393497 1.31155925 -17.45575145 1.27355632 -15.50756836 1.23608398 C-10.28953549 0.98237261 -5.23272998 -0.08050354 0 0 Z " fill="#873236" transform="translate(261.9375,282.9375)"/>
<path d="M0 0 C0.33 1.32 0.66 2.64 1 4 C0.01 4 -0.98 4 -2 4 C-2 4.66 -2 5.32 -2 6 C-3.50390625 7.4453125 -3.50390625 7.4453125 -5.5625 9.125 C-14.37515013 16.70295309 -20.05153962 25.53476565 -25.96606445 35.43115234 C-27 37 -27 37 -29 39 C-29 37.35 -29 35.7 -29 34 C-28.34 34 -27.68 34 -27 34 C-27 33.01 -27 32.02 -27 31 C-26.34 31 -25.68 31 -25 31 C-25 30.01 -25 29.02 -25 28 C-24.34 28 -23.68 28 -23 28 C-23 27.34 -23 26.68 -23 26 C-23.66 25.67 -24.32 25.34 -25 25 C-24.01 25 -23.02 25 -22 25 C-22 24.34 -22 23.68 -22 23 C-23.32 22.34 -24.64 21.68 -26 21 C-25.401875 20.855625 -24.80375 20.71125 -24.1875 20.5625 C-22.43849596 20.1127561 -20.71322977 19.57107659 -19 19 C-18.83312552 16.58354218 -18.83312552 16.58354218 -19 14 C-20.95216435 12.04783565 -22.53199953 11.15173355 -25 10 C-17.62208 3.81738547 -9.88600863 -0.85965292 0 0 Z M-18 10 C-17 12 -17 12 -17 12 Z " fill="#771819" transform="translate(264,121)"/>
<path d="M0 0 C2.16015625 0.34765625 2.16015625 0.34765625 4 1 C-0.6372315 9.3150358 -0.6372315 9.3150358 -3 12 C-3.66 12 -4.32 12 -5 12 C-5 12.66 -5 13.32 -5 14 C-17.05708929 24.22188584 -29.15270542 27.85532624 -45 27 C-45 26.34 -45 25.68 -45 25 C-36.585 24.505 -36.585 24.505 -28 24 C-27.67 23.34 -27.34 22.68 -27 22 C-26.01 22 -25.02 22 -24 22 C-24 21.34 -24 20.68 -24 20 C-25.98 19.67 -27.96 19.34 -30 19 C-27.1722312 17.1148208 -25.70099569 16.61289186 -22.5 15.875 C-14.57516523 13.5925549 -8.11692825 8.42564934 -2.5625 2.4375 C-1.716875 1.633125 -0.87125 0.82875 0 0 Z " fill="#8A383B" transform="translate(160,214)"/>
<path d="M0 0 C3.32820054 -0.22692276 5.41801336 -0.32162419 8.375 1.3125 C10 3 10 3 10 6 C8.35 6 6.7 6 5 6 C4.82210937 6.57105469 4.64421875 7.14210938 4.4609375 7.73046875 C2.2893471 11.10398218 -0.90704402 12.51612507 -4.375 14.3125 C-5.38433594 14.8703418 -5.38433594 14.8703418 -6.4140625 15.43945312 C-11.44869401 18.10047391 -11.44869401 18.10047391 -14.22509766 17.59448242 C-15.10367432 17.30021362 -15.10367432 17.30021362 -16 17 C-16 16.01 -16 15.02 -16 14 C-16.66 14 -17.32 14 -18 14 C-18.33 12.68 -18.66 11.36 -19 10 C-16.74820691 8.74900384 -14.92245172 7.9852289 -12.375 7.5 C-9.82473909 7.18891761 -9.82473909 7.18891761 -8 5 C-7.01 4.87625 -6.02 4.7525 -5 4.625 C-1.87885291 4.34069672 -1.87885291 4.34069672 -0.625 1.9375 C-0.315625 0.9784375 -0.315625 0.9784375 0 0 Z " fill="#771416" transform="translate(187,116)"/>
<path d="M0 0 C1.11246094 0.02964844 2.22492188 0.05929688 3.37109375 0.08984375 C12.22159521 0.50172861 20.64698986 2.0046716 29 5 C29.495 5.99 29.495 5.99 30 7 C27.36 7 24.72 7 22 7 C22 7.66 22 8.32 22 9 C21.01 9 20.02 9 19 9 C19 10.65 19 12.3 19 14 C17.865625 13.72285156 16.73125 13.44570312 15.5625 13.16015625 C14.04172152 12.79404291 12.52088505 12.42817037 11 12.0625 C10.25621094 11.88009766 9.51242187 11.69769531 8.74609375 11.50976562 C3.8385724 10.33622791 -0.98254788 9.54165676 -6 9 C-5.67 8.34 -5.34 7.68 -5 7 C-1.37 7 2.26 7 6 7 C6 6.67 6 6.34 6 6 C7.65 6 9.3 6 11 6 C11.33 5.34 11.66 4.68 12 4 C9.69 4 7.38 4 5 4 C4.67 4.66 4.34 5.32 4 6 C4 4.68 4 3.36 4 2 C-2.6 2 -9.2 2 -16 2 C-10.52825521 -0.73587239 -6.02214062 -0.21433566 0 0 Z " fill="#7F2427" transform="translate(264,101)"/>
<path d="M0 0 C10.23 0.33 20.46 0.66 31 1 C31.495 1.99 31.495 1.99 32 3 C35.465 2.505 35.465 2.505 39 2 C39.495 2.99 39.495 2.99 40 4 C39.34 4.99 38.68 5.98 38 7 C38 6.34 38 5.68 38 5 C37.5059668 5.32597168 37.01193359 5.65194336 36.50292969 5.98779297 C33.00831611 7.40104579 29.6609081 7.24669114 25.953125 7.1953125 C24.79632233 7.19106766 24.79632233 7.19106766 23.6161499 7.18673706 C21.16060668 7.17557013 18.7054324 7.15047229 16.25 7.125 C14.58203653 7.11496568 12.91406732 7.10584061 11.24609375 7.09765625 C7.16392103 7.07564225 3.082023 7.04113667 -1 7 C-0.67 6.01 -0.34 5.02 0 4 C0.66 3.67 1.32 3.34 2 3 C1.34 2.67 0.68 2.34 0 2 C0 1.34 0 0.68 0 0 Z " fill="#7E1C1F" transform="translate(237,102)"/>
<path d="M0 0 C0.52980469 0.32226562 1.05960937 0.64453125 1.60546875 0.9765625 C1.60546875 1.9665625 1.60546875 2.9565625 1.60546875 3.9765625 C-4.14453125 6.9765625 -4.14453125 6.9765625 -6.39453125 6.9765625 C-6.39453125 7.6365625 -6.39453125 8.2965625 -6.39453125 8.9765625 C-7.05453125 8.9765625 -7.71453125 8.9765625 -8.39453125 8.9765625 C-8.39453125 9.6365625 -8.39453125 10.2965625 -8.39453125 10.9765625 C-11.20703125 11.6015625 -11.20703125 11.6015625 -14.39453125 11.9765625 C-15.38453125 11.3165625 -16.37453125 10.6565625 -17.39453125 9.9765625 C-18.09578125 9.7084375 -18.79703125 9.4403125 -19.51953125 9.1640625 C-21.39453125 7.9765625 -21.39453125 7.9765625 -22.14453125 5.3515625 C-22.22703125 4.5678125 -22.30953125 3.7840625 -22.39453125 2.9765625 C-16.03782772 -1.75400757 -7.49180375 -3.20204337 0 0 Z " fill="#7C1215" transform="translate(336.39453125,198.0234375)"/>
<path d="M0 0 C0.77214844 0.00902344 1.54429687 0.01804687 2.33984375 0.02734375 C2.90832031 0.03894531 3.47679687 0.05054688 4.0625 0.0625 C3.4025 1.0525 2.7425 2.0425 2.0625 3.0625 C2.37090599 5.21524948 2.37090599 5.21524948 3.0625 7.0625 C2.175625 6.876875 1.28875 6.69125 0.375 6.5 C-2.95504054 6.02895301 -5.96901927 6.17512738 -9.3125 6.5 C-20.15055221 7.49572211 -31.06493783 7.1451086 -41.9375 7.0625 C-41.9375 6.7325 -41.9375 6.4025 -41.9375 6.0625 C-36.4925 5.5675 -36.4925 5.5675 -30.9375 5.0625 C-33.63933055 3.71158472 -36.05558206 3.72391942 -39.0625 3.5 C-40.70605469 3.37431641 -40.70605469 3.37431641 -42.3828125 3.24609375 C-43.22585937 3.18550781 -44.06890625 3.12492187 -44.9375 3.0625 C-44.9375 2.7325 -44.9375 2.4025 -44.9375 2.0625 C-43.49298462 2.02491577 -43.49298462 2.02491577 -42.01928711 1.98657227 C-38.42037383 1.89185729 -34.821625 1.79179748 -31.22290039 1.69018555 C-29.67020536 1.64707755 -28.11747026 1.60538732 -26.56469727 1.56518555 C-24.32295697 1.5068931 -22.08141396 1.44337422 -19.83984375 1.37890625 C-19.15413803 1.36219376 -18.46843231 1.34548126 -17.76194763 1.32826233 C-11.79178893 1.1478866 -5.96652999 -0.09179277 0 0 Z " fill="#8E3D3F" transform="translate(261.9375,282.9375)"/>
<path d="M0 0 C0.66 0 1.32 0 2 0 C2 0.66 2 1.32 2 2 C2.66 2 3.32 2 4 2 C3.54915507 4.58484426 3.08964737 7.1676329 2.625 9.75 C2.49867188 10.47960937 2.37234375 11.20921875 2.2421875 11.9609375 C1.58165926 15.5938428 0.92552338 18.8187005 -1 22 C-1.09765625 15.84765625 -1.09765625 15.84765625 -1 14 C-0.67 13.67 -0.34 13.34 0 13 C-0.99 13 -1.98 13 -3 13 C-2.6596875 14.6396875 -2.6596875 14.6396875 -2.3125 16.3125 C-2 20 -2 20 -3.4375 21.9375 C-3.953125 22.288125 -4.46875 22.63875 -5 23 C-5.33 22.34 -5.66 21.68 -6 21 C-6.99 20.67 -7.98 20.34 -9 20 C-9.33 21.65 -9.66 23.3 -10 25 C-10.66 24.67 -11.32 24.34 -12 24 C-11.59466102 17.64968934 -9.2704368 13.38364211 -6 8 C-5.443125 6.989375 -4.88625 5.97875 -4.3125 4.9375 C-3.6628125 3.9784375 -3.6628125 3.9784375 -3 3 C-2.34 3 -1.68 3 -1 3 C-0.67 2.01 -0.34 1.02 0 0 Z " fill="#802629" transform="translate(154,312)"/>
<path d="M0 0 C0.495 0.37640625 0.99 0.7528125 1.5 1.140625 C-0.15 2.790625 -1.8 4.440625 -3.5 6.140625 C-2.84 6.470625 -2.18 6.800625 -1.5 7.140625 C-1.5 6.480625 -1.5 5.820625 -1.5 5.140625 C2.955 4.645625 2.955 4.645625 7.5 4.140625 C7.5 4.800625 7.5 5.460625 7.5 6.140625 C-10.35649203 12.47547694 -10.35649203 12.47547694 -18.5 15.140625 C-18.17 14.150625 -17.84 13.160625 -17.5 12.140625 C-15.85 12.140625 -14.2 12.140625 -12.5 12.140625 C-12.9251892 10.11097302 -12.9251892 10.11097302 -14.5 8.140625 C-17.15177645 7.15567946 -19.70547307 6.68150118 -22.5 6.140625 C-18.6905163 4.03747254 -14.62287868 2.72757298 -10.5 1.390625 C-9.7884375 1.14441406 -9.076875 0.89820312 -8.34375 0.64453125 C-3.07347796 -1.05650805 -3.07347796 -1.05650805 0 0 Z " fill="#80282B" transform="translate(209.5,109.859375)"/>
<path d="M0 0 C0.99 0.33 1.98 0.66 3 1 C2.91621094 1.86882812 2.83242187 2.73765625 2.74609375 3.6328125 C2.64425781 4.78523438 2.54242188 5.93765625 2.4375 7.125 C2.33308594 8.26195312 2.22867188 9.39890625 2.12109375 10.5703125 C2.00391984 13.88897993 2.3344928 16.7562686 3 20 C1.68 19.67 0.36 19.34 -1 19 C-1 18.01 -1 17.02 -1 16 C-2.32 16 -3.64 16 -5 16 C-5.5745952 19.73486879 -6 23.21293268 -6 27 C-5.34 27 -4.68 27 -4 27 C-3.67 29.64 -3.34 32.28 -3 35 C-7.51368335 30.89090451 -8.80695953 26.02692491 -9.375 20.0625 C-8.98412271 11.75635768 -5.78308502 5.82051599 0 0 Z " fill="#812327" transform="translate(91,263)"/>
<path d="M0 0 C2.9375 0.8125 2.9375 0.8125 6 2 C6.33 2.99 6.66 3.98 7 5 C7.99 5 8.98 5 10 5 C10.66 6.65 11.32 8.3 12 10 C10.35 10 8.7 10 7 10 C6.690625 10.639375 6.38125 11.27875 6.0625 11.9375 C5 14 5 14 4 15 C2.33382885 15.04063832 0.66611905 15.042721 -1 15 C-1 14.01 -1 13.02 -1 12 C-2.32 11.67 -3.64 11.34 -5 11 C-5 10.34 -5 9.68 -5 9 C-6.32 8.67 -7.64 8.34 -9 8 C-9 7.34 -9 6.68 -9 6 C-8.43410156 5.73445313 -7.86820312 5.46890625 -7.28515625 5.1953125 C-6.55167969 4.84210938 -5.81820313 4.48890625 -5.0625 4.125 C-4.33160156 3.77695312 -3.60070312 3.42890625 -2.84765625 3.0703125 C-0.83667541 2.1315023 -0.83667541 2.1315023 0 0 Z " fill="#7E191B" transform="translate(267,260)"/>
<path d="M0 0 C1.32 0.33 2.64 0.66 4 1 C0.5655676 12.31051055 -6.97184887 20.64878444 -15 29 C-15.66 27.68 -16.32 26.36 -17 25 C-16.34 25 -15.68 25 -15 25 C-14.67 24.34 -14.34 23.68 -14 23 C-13.34 23.33 -12.68 23.66 -12 24 C-12.33 23.01 -12.66 22.02 -13 21 C-12.34 21 -11.68 21 -11 21 C-11 20.34 -11 19.68 -11 19 C-11.99 18.34 -12.98 17.68 -14 17 C-13.49210937 16.52691406 -12.98421875 16.05382812 -12.4609375 15.56640625 C-7.49107196 10.79198486 -3.59120762 5.87652156 0 0 Z " fill="#883B41" transform="translate(365,328)"/>
<path d="M0 0 C0.33 0.66 0.66 1.32 1 2 C0.34 2 -0.32 2 -1 2 C-0.65213292 3.97536745 -0.65213292 3.97536745 0 6 C0.66 6.33 1.32 6.66 2 7 C-0.77280706 10.08089673 -3.06326356 11.68775452 -7 13 C-7 13.66 -7 14.32 -7 15 C-12.17578125 18.22265625 -12.17578125 18.22265625 -14 19 C-14.99 18.67 -15.98 18.34 -17 18 C-17.33 17.34 -17.66 16.68 -18 16 C-20.02463255 15.34786708 -20.02463255 15.34786708 -22 15 C-19.04666001 12.99254745 -16.08653968 10.99533174 -13.125 9 C-12.28324219 8.42765625 -11.44148438 7.8553125 -10.57421875 7.265625 C-9.76855469 6.72421875 -8.96289062 6.1828125 -8.1328125 5.625 C-7.38918457 5.12226563 -6.64555664 4.61953125 -5.87939453 4.1015625 C-4 3 -4 3 -2 3 C-2 2.34 -2 1.68 -2 1 C-1.34 0.67 -0.68 0.34 0 0 Z " fill="#822529" transform="translate(384,243)"/>
<path d="M0 0 C0.33 0 0.66 0 1 0 C1 1.65 1 3.3 1 5 C2.32 5.33 3.64 5.66 5 6 C3.76165425 7.96572359 2.50887749 9.92236155 1.25 11.875 C0.55390625 12.96554688 -0.1421875 14.05609375 -0.859375 15.1796875 C-2.87367723 17.83356745 -3.89803529 18.97035625 -7 20 C-9 20 -11 20 -13 20 C-13 20.66 -13 21.32 -13 22 C-13.66 21.67 -14.32 21.34 -15 21 C-14.67 20.34 -14.34 19.68 -14 19 C-13.34 19 -12.68 19 -12 19 C-11.34 17.35 -10.68 15.7 -10 14 C-9.34 14 -8.68 14 -8 14 C-7.73316406 13.27425781 -7.46632813 12.54851562 -7.19140625 11.80078125 C-6.00635328 9.01493542 -4.62860559 6.69299551 -2.9375 4.1875 C-2.41027344 3.39730469 -1.88304687 2.60710937 -1.33984375 1.79296875 C-0.89769531 1.20128906 -0.45554687 0.60960937 0 0 Z " fill="#8F4145" transform="translate(418,204)"/>
<path d="M0 0 C0.33 0.66 0.66 1.32 1 2 C-1.58929502 5.88394252 -3.60713029 5.82333847 -8 7 C-8.66 7.66 -9.32 8.32 -10 9 C-12.32275177 9.40047444 -14.65739357 9.7397104 -17 10 C-17 11.32 -17 12.64 -17 14 C-16.34 14 -15.68 14 -15 14 C-15 14.99 -15 15.98 -15 17 C-14.01 17.33 -13.02 17.66 -12 18 C-14.54456151 20.96865509 -17.48994665 22.3619751 -21 24 C-20.67 21.69 -20.34 19.38 -20 17 C-20.66 16.67 -21.32 16.34 -22 16 C-21.34 15.67 -20.68 15.34 -20 15 C-22.1385485 12.8614515 -23.13275314 12.57344937 -26 12 C-8.85106383 3.23404255 -8.85106383 3.23404255 0 0 Z " fill="#81282B" transform="translate(186,116)"/>
<path d="M0 0 C2.53206703 4.6172987 2.3707559 9.0250188 1 14 C-1.0625 16.0625 -1.0625 16.0625 -3 17 C-3.66 16.34 -4.32 15.68 -5 15 C-5 14.01 -5 13.02 -5 12 C-5.99 11.67 -6.98 11.34 -8 11 C-8 9.68 -8 8.36 -8 7 C-8.66 7 -9.32 7 -10 7 C-10 5.35 -10 3.7 -10 2 C-9.38125 1.855625 -8.7625 1.71125 -8.125 1.5625 C-2.22222222 0 -2.22222222 0 0 0 Z " fill="#7B1417" transform="translate(392,183)"/>
<path d="M0 0 C1.32 0.33 2.64 0.66 4 1 C1.66119456 6.53556463 -2.90194371 8.62065338 -8.2109375 10.984375 C-13.62036526 12.99630252 -18.25147316 13.27373937 -24 13 C-20.61831569 9.31993178 -17.57478244 7.0214155 -13 5 C-12.67 5.99 -12.34 6.98 -12 8 C-9.84188612 7.05270463 -9.84188612 7.05270463 -8 5 C-7.34 5 -6.68 5 -6 5 C-3.96128755 4.8237956 -3.96128755 4.8237956 -2 4 C-0.71563266 2.0162233 -0.71563266 2.0162233 0 0 Z " fill="#842D2F" transform="translate(345,354)"/>
<path d="M0 0 C0.33 0.66 0.66 1.32 1 2 C0.01 2.99 -0.98 3.98 -2 5 C-0.35 5.33 1.3 5.66 3 6 C3 6.66 3 7.32 3 8 C3.99 8.33 4.98 8.66 6 9 C6 8.34 6 7.68 6 7 C7.32 7 8.64 7 10 7 C9 10 9 10 6.1875 11.8125 C3 13 3 13 0.875 12.25 C0.25625 11.8375 -0.3625 11.425 -1 11 C-4.13138177 9.92358752 -5.84550185 10.18593596 -9 11 C-9.99 10.67 -10.98 10.34 -12 10 C-13.33106622 9.65772583 -14.66400079 9.32248257 -16 9 C-15.02160156 8.52820313 -15.02160156 8.52820313 -14.0234375 8.046875 C-9.10344145 5.6376734 -4.4667826 3.17376659 0 0 Z " fill="#882B2E" transform="translate(266,196)"/>
<path d="M0 0 C2.23366835 0.41881282 3.82317759 0.15794901 6.0625 -0.1875 C10 -0.625 10 -0.625 13 1.375 C12.34773438 1.56835938 11.69546875 1.76171875 11.0234375 1.9609375 C10.14945312 2.22132813 9.27546875 2.48171875 8.375 2.75 C7.00214844 3.15605469 7.00214844 3.15605469 5.6015625 3.5703125 C3.62660704 4.18118461 1.67947931 4.88289257 -0.25 5.625 C-3.57791022 6.53261188 -5.70345481 6.34897926 -9 5.375 C-9.66 4.385 -10.32 3.395 -11 2.375 C-14.06556598 1.64156572 -14.06556598 1.64156572 -17 1.375 C-11.14157035 -1.65522223 -6.30701296 -1.97094155 0 0 Z " fill="#771114" transform="translate(247,211.625)"/>
<path d="M0 0 C1.32 0.66 2.64 1.32 4 2 C-7.47649024 11.22264227 -18.41601215 13.78714177 -33 13 C-33 12.34 -33 11.68 -33 11 C-24.585 10.505 -24.585 10.505 -16 10 C-15.67 9.34 -15.34 8.68 -15 8 C-14.01 8 -13.02 8 -12 8 C-12 7.34 -12 6.68 -12 6 C-14.97 5.505 -14.97 5.505 -18 5 C-15 3 -15 3 -12.875 3.25 C-11 4 -11 4 -10 6 C-9.01 6.33 -8.02 6.66 -7 7 C-7 6.34 -7 5.68 -7 5 C-5.68 4.67 -4.36 4.34 -3 4 C-3 3.34 -3 2.68 -3 2 C-1.68 2.33 -0.36 2.66 1 3 C0.505 1.515 0.505 1.515 0 0 Z " fill="#8B4143" transform="translate(148,228)"/>
<path d="M0 0 C0.33 0.66 0.66 1.32 1 2 C1.66 2.33 2.32 2.66 3 3 C2.7834375 3.8353125 2.7834375 3.8353125 2.5625 4.6875 C1.97230872 7.11384195 1.476571 9.54906345 1 12 C-0.670625 12.2165625 -0.670625 12.2165625 -2.375 12.4375 C-5.82142047 12.78372035 -5.82142047 12.78372035 -8 14 C-9.35023349 7.61707805 -9.35023349 7.61707805 -7.6875 4.6875 C-5.05274783 2.05274783 -3.67978229 0.73595646 0 0 Z " fill="#781215" transform="translate(164,128)"/>
<path d="M0 0 C1.32 0.66 2.64 1.32 4 2 C4 2.66 4 3.32 4 4 C3.34 4 2.68 4 2 4 C1.73832031 4.59296875 1.47664063 5.1859375 1.20703125 5.796875 C-0.74740497 9.36419549 -3.62055235 11.78087772 -7 14 C-9.9375 14.375 -9.9375 14.375 -12 14 C-11.67 12.35 -11.34 10.7 -11 9 C-10.34 9 -9.68 9 -9 9 C-9 8.34 -9 7.68 -9 7 C-8.34 7 -7.68 7 -7 7 C-6.67 6.01 -6.34 5.02 -6 4 C-5.01 4 -4.02 4 -3 4 C-3 3.34 -3 2.68 -3 2 C-2.01 1.34 -1.02 0.68 0 0 Z " fill="#84363A" transform="translate(408,222)"/>
<path d="M0 0 C-0.66 1.32 -1.32 2.64 -2 4 C-2.33 3.67 -2.66 3.34 -3 3 C-3.33 4.32 -3.66 5.64 -4 7 C-7.96 7 -11.92 7 -16 7 C-16 7.66 -16 8.32 -16 9 C-17.32 8.67 -18.64 8.34 -20 8 C-18.02 6.35 -16.04 4.7 -14 3 C-14.33 2.01 -14.66 1.02 -15 0 C-4.44191344 -1.33257403 -4.44191344 -1.33257403 0 0 Z " fill="#7F2127" transform="translate(224,108)"/>
<path d="M0 0 C0.33 0.66 0.66 1.32 1 2 C-2.3 2 -5.6 2 -9 2 C-9 2.66 -9 3.32 -9 4 C-6.03 4 -3.06 4 0 4 C-3.44633882 6.29755922 -4.71068391 6.23643976 -8.76171875 6.1953125 C-9.87998047 6.18886719 -10.99824219 6.18242187 -12.15039062 6.17578125 C-13.90125977 6.15064453 -13.90125977 6.15064453 -15.6875 6.125 C-16.86634766 6.11597656 -18.04519531 6.10695313 -19.25976562 6.09765625 C-22.17338026 6.07406423 -25.08658892 6.0411454 -28 6 C-28 5.67 -28 5.34 -28 5 C-22.555 4.505 -22.555 4.505 -17 4 C-19.70183055 2.64908472 -22.11808206 2.66141942 -25.125 2.4375 C-26.76855469 2.31181641 -26.76855469 2.31181641 -28.4453125 2.18359375 C-29.28835937 2.12300781 -30.13140625 2.06242187 -31 2 C-31 1.67 -31 1.34 -31 1 C-15.655 0.505 -15.655 0.505 0 0 Z " fill="#A36566" transform="translate(248,284)"/>
<path d="M0 0 C1.14210938 -0.01417969 2.28421875 -0.02835938 3.4609375 -0.04296875 C6.46436816 0.17579966 8.10425934 0.61669363 10.625 2.1875 C10.625 3.1775 10.625 4.1675 10.625 5.1875 C4.875 8.1875 4.875 8.1875 2.625 8.1875 C2.625 8.8475 2.625 9.5075 2.625 10.1875 C1.965 10.1875 1.305 10.1875 0.625 10.1875 C0.625 10.8475 0.625 11.5075 0.625 12.1875 C-0.035 12.1875 -0.695 12.1875 -1.375 12.1875 C-1.375 10.5375 -1.375 8.8875 -1.375 7.1875 C0.605 6.8575 2.585 6.5275 4.625 6.1875 C4.625 4.8675 4.625 3.5475 4.625 2.1875 C3.3875 2.373125 2.15 2.55875 0.875 2.75 C-2.13779577 3.13461223 -4.47510827 3.2749594 -7.375 2.1875 C-7.375 2.8475 -7.375 3.5075 -7.375 4.1875 C-9.355 4.5175 -11.335 4.8475 -13.375 5.1875 C-8.48031178 1.19446487 -6.34225124 0.03563062 0 0 Z " fill="#8E494C" transform="translate(327.375,196.8125)"/>
<path d="M0 0 C0.33 1.32 0.66 2.64 1 4 C-2.96 5.98 -6.92 7.96 -11 10 C-11.66 7.69 -12.32 5.38 -13 3 C-11.40084119 2.30093058 -9.79544955 1.61610532 -8.1875 0.9375 C-7.29417969 0.55464844 -6.40085937 0.17179687 -5.48046875 -0.22265625 C-3 -1 -3 -1 0 0 Z " fill="#7E2429" transform="translate(367,259)"/>
<path d="M0 0 C2 2 2 2 2 5 C0.6875 6.5 0.6875 6.5 -1 8 C-1.515625 8.556875 -2.03125 9.11375 -2.5625 9.6875 C-4 11 -4 11 -6 11 C-6 11.66 -6 12.32 -6 13 C-6.99 13.66 -7.98 14.32 -9 15 C-9 16.32 -9 17.64 -9 19 C-10.875 21.25 -10.875 21.25 -13 23 C-13.66 23 -14.32 23 -15 23 C-15 23.99 -15 24.98 -15 26 C-15.66 26 -16.32 26 -17 26 C-13.36298421 16.36959198 -7.27953777 7.27953777 0 0 Z " fill="#853538" transform="translate(313,202)"/>
<path d="M0 0 C2.91691525 -0.05401695 5.83282724 -0.09368066 8.75 -0.125 C9.575 -0.14175781 10.4 -0.15851563 11.25 -0.17578125 C12.04921875 -0.18222656 12.8484375 -0.18867188 13.671875 -0.1953125 C14.4050293 -0.20578613 15.13818359 -0.21625977 15.89355469 -0.22705078 C18.29896076 0.03222456 19.91251494 0.80774075 22 2 C19.35541621 3.32229189 17.32238699 3.09677194 14.375 3.0625 C13.37210938 3.05347656 12.36921875 3.04445313 11.3359375 3.03515625 C10.56507813 3.02355469 9.79421875 3.01195312 9 3 C9 3.66 9 4.32 9 5 C7.5629191 5.05422947 6.12524538 5.09289723 4.6875 5.125 C3.88699219 5.14820313 3.08648437 5.17140625 2.26171875 5.1953125 C0 5 0 5 -3 3 C-2.01 3 -1.02 3 0 3 C0 2.01 0 1.02 0 0 Z " fill="#8D3032" transform="translate(211,286)"/>
<path d="M0 0 C0.66 0 1.32 0 2 0 C0.57142857 17.42857143 0.57142857 17.42857143 -4 22 C-3.85915204 20.20793453 -3.71216299 18.41635083 -3.5625 16.625 C-3.48128906 15.62726563 -3.40007812 14.62953125 -3.31640625 13.6015625 C-3 11 -3 11 -2 9 C-2.66 9 -3.32 9 -4 9 C-4.66 9.66 -5.32 10.32 -6 11 C-6.1953125 4.9453125 -6.1953125 4.9453125 -6 3 C-5.34 2.34 -4.68 1.68 -4 1 C-3.01 1.99 -2.02 2.98 -1 4 C-0.67 2.68 -0.34 1.36 0 0 Z " fill="#8B3D3D" transform="translate(431,179)"/>
<path d="M0 0 C0.33 0.66 0.66 1.32 1 2 C1.66 2 2.32 2 3 2 C4.6875 3.125 4.6875 3.125 6 5 C5.6875 8.1875 5.6875 8.1875 5 11 C4.01 11 3.02 11 2 11 C1.01 12.485 1.01 12.485 0 14 C-0.66 13.67 -1.32 13.34 -2 13 C-3.11240343 8.87657975 -3.68179071 5.21536604 -1.5625 1.4375 C-1.046875 0.963125 -0.53125 0.48875 0 0 Z " fill="#7A1316" transform="translate(87,277)"/>
<path d="M0 0 C1.11375 0.3403125 1.11375 0.3403125 2.25 0.6875 C1.25 3.6875 1.25 3.6875 0.25 5.6875 C-1.8125 6.3125 -1.8125 6.3125 -3.75 6.6875 C-3.75 6.0275 -3.75 5.3675 -3.75 4.6875 C-4.86375 5.30625 -5.9775 5.925 -7.125 6.5625 C-7.75148438 6.91054688 -8.37796875 7.25859375 -9.0234375 7.6171875 C-10.9112614 8.69647274 -10.9112614 8.69647274 -12.75 10.6875 C-12.75 10.0275 -12.75 9.3675 -12.75 8.6875 C-14.4 8.6875 -16.05 8.6875 -17.75 8.6875 C-17.75 8.0275 -17.75 7.3675 -17.75 6.6875 C-18.74 7.0175 -19.73 7.3475 -20.75 7.6875 C-20.75 6.6975 -20.75 5.7075 -20.75 4.6875 C-19.925 4.914375 -19.1 5.14125 -18.25 5.375 C-12.98533484 5.84505939 -8.68341553 4.23423243 -4.5625 0.9375 C-2.75 -0.3125 -2.75 -0.3125 0 0 Z " fill="#8C3B3F" transform="translate(352.75,346.3125)"/>
<path d="M0 0 C1.77119803 0.14133499 3.54195287 0.28823208 5.3125 0.4375 C6.29863281 0.51871094 7.28476563 0.59992188 8.30078125 0.68359375 C11 1 11 1 14 2 C14 4 14 4 12.5625 5.625 C8.78022773 7.65451195 5.20719164 7.24272259 1 7 C0.67 4.69 0.34 2.38 0 0 Z " fill="#81171A" transform="translate(122,232)"/>
<path d="M0 0 C0.33 0.99 0.66 1.98 1 3 C2.65 3 4.3 3 6 3 C6 3.66 6 4.32 6 5 C7.32 5.33 8.64 5.66 10 6 C9.030625 6.28875 8.06125 6.5775 7.0625 6.875 C3.89335797 7.64214682 3.89335797 7.64214682 3 10 C2.401875 9.690625 1.80375 9.38125 1.1875 9.0625 C-1.08956772 7.89790296 -1.08956772 7.89790296 -4 7 C-4 7.66 -4 8.32 -4 9 C-4.66 9 -5.32 9 -6 9 C-5.67 6.69 -5.34 4.38 -5 2 C-3.35 1.34 -1.7 0.68 0 0 Z " fill="#7A1215" transform="translate(107,225)"/>
<path d="M0 0 C0.66 0.33 1.32 0.66 2 1 C1.01 1.495 1.01 1.495 0 2 C-0.33 2.66 -0.66 3.32 -1 4 C-2.33076989 4.34342449 -3.66431979 4.67619874 -5 5 C-5.66 5.66 -6.32 6.32 -7 7 C-9.625 7.125 -9.625 7.125 -12 7 C-12.2165625 5.824375 -12.2165625 5.824375 -12.4375 4.625 C-12.87798925 2.03578982 -12.87798925 2.03578982 -14 0 C-9.20863728 -1.59712091 -4.74150731 -1.58050244 0 0 Z " fill="#781719" transform="translate(322,273)"/>
<path d="M0 0 C2.0625 0.4375 2.0625 0.4375 4 1 C-0.6372315 9.3150358 -0.6372315 9.3150358 -3 12 C-3.66 12 -4.32 12 -5 12 C-5.33 12.66 -5.66 13.32 -6 14 C-6.33 13.01 -6.66 12.02 -7 11 C-9.01508358 10.26676204 -9.01508358 10.26676204 -11 10 C-9.93458984 9.04287109 -9.93458984 9.04287109 -8.84765625 8.06640625 C-7.46900391 6.82697266 -7.46900391 6.82697266 -6.0625 5.5625 C-4.68771484 4.32693359 -4.68771484 4.32693359 -3.28515625 3.06640625 C-1.61665644 1.56046061 -1.61665644 1.56046061 0 0 Z " fill="#9A5257" transform="translate(160,214)"/>
<path d="M0 0 C2.31 0.33 4.62 0.66 7 1 C6.34 2.32 5.68 3.64 5 5 C11.93 5.495 11.93 5.495 19 6 C19 6.33 19 6.66 19 7 C7.615 7.99 7.615 7.99 -4 9 C-4 6 -4 6 -2 4 C-1.67 3.34 -1.34 2.68 -1 2 C0.32 2.33 1.64 2.66 3 3 C3 2.34 3 1.68 3 1 C2.01 0.67 1.02 0.34 0 0 Z " fill="#863739" transform="translate(233,103)"/>
<path d="M0 0 C0.99 0.66 1.98 1.32 3 2 C2.01 2.99 1.02 3.98 0 5 C-0.66 4.67 -1.32 4.34 -2 4 C-2 3.67 -2 3.34 -2 3 C-4.31 3 -6.62 3 -9 3 C-9.33 3.66 -9.66 4.32 -10 5 C-10 3.68 -10 2.36 -10 1 C-16.6 1 -23.2 1 -30 1 C-21.52694632 -3.23652684 -9.20443019 -1.29916059 0 0 Z " fill="#873B3F" transform="translate(278,102)"/>
<path d="M0 0 C-0.62218575 3.57756806 -2.10346743 5.78968103 -4.25 8.6875 C-7.55955502 13.27993409 -10.37412563 17.99026733 -13 23 C-13.33 23 -13.66 23 -14 23 C-14 21.35 -14 19.7 -14 18 C-13.34 18 -12.68 18 -12 18 C-12 17.01 -12 16.02 -12 15 C-11.34 15 -10.68 15 -10 15 C-10 14.01 -10 13.02 -10 12 C-9.34 12 -8.68 12 -8 12 C-8 11.34 -8 10.68 -8 10 C-8.66 9.67 -9.32 9.34 -10 9 C-9.01 9 -8.02 9 -7 9 C-7 8.34 -7 7.68 -7 7 C-8.32 6.34 -9.64 5.68 -11 5 C-10.401875 4.855625 -9.80375 4.71125 -9.1875 4.5625 C-7.43849596 4.1127561 -5.71322977 3.57107659 -4 3 C-4 2.34 -4 1.68 -4 1 C-2 0 -2 0 0 0 Z " fill="#8F4347" transform="translate(249,137)"/>
<path d="M0 0 C2.64 0 5.28 0 8 0 C8 0.99 8 1.98 8 3 C7.01 3.495 7.01 3.495 6 4 C6 5.65 6 7.3 6 9 C5.030625 8.67 4.06125 8.34 3.0625 8 C0.37850426 6.94826637 0.37850426 6.94826637 -1 7 C-1.66 7 -2.32 7 -3 7 C-3 5.35 -3 3.7 -3 2 C-2.01 2 -1.02 2 0 2 C0 1.34 0 0.68 0 0 Z " fill="#7B1314" transform="translate(286,108)"/>
<path d="M0 0 C0.2475 0.639375 0.495 1.27875 0.75 1.9375 C1.96621634 4.49019039 1.96621634 4.49019039 6 5 C-1.92 5.495 -1.92 5.495 -10 6 C-10 4.35 -10 2.7 -10 1 C-6.52674819 -0.1577506 -3.63932552 -0.06866652 0 0 Z " fill="#6E1517" transform="translate(236,213)"/>
<path d="M0 0 C0 1.32 0 2.64 0 4 C1.65 4.33 3.3 4.66 5 5 C2.40386733 7.13253755 0.36932827 8.55075623 -3 9 C-3.66 8.67 -4.32 8.34 -5 8 C-5 7.01 -5 6.02 -5 5 C-5.66 5 -6.32 5 -7 5 C-7.33 3.68 -7.66 2.36 -8 1 C-4.93251126 -0.86240388 -3.40254489 -1.2151946 0 0 Z " fill="#7F2327" transform="translate(176,125)"/>
<path d="M0 0 C-0.99 0 -1.98 0 -3 0 C-3 1.65 -3 3.3 -3 5 C-2.38125 4.835 -1.7625 4.67 -1.125 4.5 C3.25470729 3.79924683 7.57428989 3.92265749 12 4 C12 4.33 12 4.66 12 5 C6.19233704 6.5056904 1.0018137 7.21824777 -5 7 C-5 7.66 -5 8.32 -5 9 C-5.99 8.67 -6.98 8.34 -8 8 C-7.34 6.02 -6.68 4.04 -6 2 C-6.99 1.34 -7.98 0.68 -9 0 C-5.62182575 -0.84454356 -3.32534757 -1.10844919 0 0 Z " fill="#914E4E" transform="translate(229,214)"/>
<path d="M0 0 C2.97 0.495 2.97 0.495 6 1 C-1.93418587 6.28945725 -11.86072406 5.21674172 -21 5 C-21 4.01 -21 3.02 -21 2 C-20.154375 2.01160156 -19.30875 2.02320313 -18.4375 2.03515625 C-12.18439382 2.08489687 -6.17994069 1.96940246 0 1 C0 0.67 0 0.34 0 0 Z " fill="#8E4144" transform="translate(128,303)"/>
<path d="M0 0 C0 1.32 0 2.64 0 4 C-8.03571429 6.27678571 -8.03571429 6.27678571 -12 5 C-11.34 4.34 -10.68 3.68 -10 3 C-12.64 3 -15.28 3 -18 3 C-18 2.67 -18 2.34 -18 2 C-11.84629161 0.176679 -6.40353322 -0.2361959 0 0 Z " fill="#8C4446" transform="translate(211,287)"/>
<path d="M0 0 C0.33 0.66 0.66 1.32 1 2 C-1.58929502 5.88394252 -3.60713029 5.82333847 -8 7 C-8.66 7.66 -9.32 8.32 -10 9 C-12.68839385 9.26991906 -15.29141936 9.08737357 -18 9 C-16.44249451 5.88498902 -13.80545492 5.34907692 -10.6875 3.9375 C-9.53636719 3.41027344 -8.38523438 2.88304688 -7.19921875 2.33984375 C-4.75993949 1.31826526 -2.57777715 0.51555543 0 0 Z " fill="#8B4147" transform="translate(186,116)"/>
<path d="M0 0 C-1.38782485 0.8466034 -2.78569397 1.67675339 -4.1875 2.5 C-4.96480469 2.9640625 -5.74210938 3.428125 -6.54296875 3.90625 C-9.27765361 5.12359779 -11.03942313 5.32006236 -14 5 C-15.8125 3.5 -15.8125 3.5 -17 2 C-13.77224135 -0.1518391 -12.28087493 -0.37750891 -8.5 -0.6875 C-7.5409375 -0.77386719 -6.581875 -0.86023438 -5.59375 -0.94921875 C-3 -1 -3 -1 0 0 Z " fill="#7D2729" transform="translate(204,290)"/>
<path d="M0 0 C2.31 0.33 4.62 0.66 7 1 C6.50769231 7.52307692 6.50769231 7.52307692 3.9375 9.9375 C3.298125 10.288125 2.65875 10.63875 2 11 C1.01 10.34 0.02 9.68 -1 9 C0 7 0 7 2 5 C1.34 4.34 0.68 3.68 0 3 C0 2.01 0 1.02 0 0 Z " fill="#7A1114" transform="translate(239,132)"/>
<path d="M0 0 C0 1.65 0 3.3 0 5 C0.66 5 1.32 5 2 5 C0.59928507 10.29158974 -2.85487245 12.77478044 -7 16 C-7.33 14.68 -7.66 13.36 -8 12 C-7.34 12 -6.68 12 -6 12 C-5.67 11.34 -5.34 10.68 -5 10 C-4.34 10.33 -3.68 10.66 -3 11 C-3.33 10.01 -3.66 9.02 -4 8 C-3.34 8 -2.68 8 -2 8 C-2 7.34 -2 6.68 -2 6 C-2.99 5.34 -3.98 4.68 -5 4 C-1.125 0 -1.125 0 0 0 Z " fill="#9A5756" transform="translate(356,341)"/>
<path d="M0 0 C0.66 0.66 1.32 1.32 2 2 C1.60467975 4.45098556 0.78698574 6.63904279 0 9 C0.99 9.33 1.98 9.66 3 10 C2.01 11.485 2.01 11.485 1 13 C0.01 13 -0.98 13 -2 13 C-2 14.65 -2 16.3 -2 18 C-2.99 18.33 -3.98 18.66 -5 19 C-3.64746536 12.54945018 -1.96939767 6.28894321 0 0 Z " fill="#873137" transform="translate(317,300)"/>
<path d="M0 0 C0.99 0.33 1.98 0.66 3 1 C2.67 3.31 2.34 5.62 2 8 C1.34 8 0.68 8 0 8 C0 7.34 0 6.68 0 6 C-1.175625 7.2065625 -1.175625 7.2065625 -2.375 8.4375 C-5 11 -5 11 -7 12 C-6.67566492 6.64847115 -3.50295176 3.71719957 0 0 Z " fill="#914C4F" transform="translate(91,263)"/>
<path d="M0 0 C2.97 0 5.94 0 9 0 C8.67 0.66 8.34 1.32 8 2 C7.34 2 6.68 2 6 2 C6.33 2.66 6.66 3.32 7 4 C9.54941373 4.31241371 12.00361513 4.51303421 14.5625 4.625 C15.27341797 4.66367188 15.98433594 4.70234375 16.71679688 4.7421875 C18.47742425 4.83671783 20.23867728 4.91945817 22 5 C22 5.33 22 5.66 22 6 C14.41 6 6.82 6 -1 6 C-0.67 5.01 -0.34 4.02 0 3 C0.66 2.67 1.32 2.34 2 2 C1.34 1.34 0.68 0.68 0 0 Z " fill="#701013" transform="translate(237,103)"/>
<path d="M0 0 C4.30764815 1.56641751 8.06171464 3.68336156 12 6 C11.835 6.94875 11.67 7.8975 11.5 8.875 C10.9473365 11.80168901 10.9473365 11.80168901 11 14 C10.01 14 9.02 14 8 14 C7 9.125 7 9.125 7 8 C6.01 8.495 6.01 8.495 5 9 C5 7.35 5 5.7 5 4 C4.360625 3.71125 3.72125 3.4225 3.0625 3.125 C1 2 1 2 0 0 Z " fill="#7E1116" transform="translate(299,114)"/>
<path d="M0 0 C1.98 0 3.96 0 6 0 C6.95024979 3.69541586 6.95024979 6.30458414 6 10 C5.34 9.67 4.68 9.34 4 9 C4 8.34 4 7.68 4 7 C2.68 7.33 1.36 7.66 0 8 C-1.125 2.25 -1.125 2.25 0 0 Z " fill="#7C1A1D" transform="translate(425,174)"/>
<path d="M0 0 C0 3 0 3 -1.5625 5.5625 C-2.036875 6.366875 -2.51125 7.17125 -3 8 C-2.67 8.66 -2.34 9.32 -2 10 C-5.90619985 11.25556424 -8.36822084 10.81588958 -12 9 C-8.04 6.03 -4.08 3.06 0 0 Z " fill="#8A393D" transform="translate(223,340)"/>
<path d="M0 0 C1.32 0.33 2.64 0.66 4 1 C2.84414715 4.91211733 1.64465038 7.8745041 -1 11 C-1 10.34 -1 9.68 -1 9 C-2.32 9 -3.64 9 -5 9 C-3.50163895 5.88801935 -1.80066242 2.9465385 0 0 Z " fill="#9A585E" transform="translate(365,328)"/>
<path d="M0 0 C2.31 0 4.62 0 7 0 C7.33 1.32 7.66 2.64 8 4 C7.01 4 6.02 4 5 4 C5 4.66 5 5.32 5 6 C3.46875 7.2890625 3.46875 7.2890625 1.5 8.625 C0.8503125 9.07101563 0.200625 9.51703125 -0.46875 9.9765625 C-0.9740625 10.31429687 -1.479375 10.65203125 -2 11 C-2.33 9.35 -2.66 7.7 -3 6 C-1.68 6 -0.36 6 1 6 C1.6814823 4.10820797 1.6814823 4.10820797 2 2 C1.34 1.34 0.68 0.68 0 0 Z " fill="#91494B" transform="translate(257,121)"/>
<path d="M0 0 C0.144375 0.61875 0.28875 1.2375 0.4375 1.875 C0.93152225 4.03258322 0.93152225 4.03258322 2 6 C1.0625 8.125 1.0625 8.125 0 10 C0 9.34 0 8.68 0 8 C-0.66 8 -1.32 8 -2 8 C-2.268125 8.598125 -2.53625 9.19625 -2.8125 9.8125 C-3.99199336 11.98525092 -5.229192 13.30618365 -7 15 C-7.33 15.66 -7.66 16.32 -8 17 C-8.66 17 -9.32 17 -10 17 C-8.51364884 12.78345644 -6.38750841 9.37521395 -3.875 5.6875 C-3.15054687 4.61886719 -2.42609375 3.55023438 -1.6796875 2.44921875 C-0.84824219 1.23685547 -0.84824219 1.23685547 0 0 Z " fill="#93474A" transform="translate(260,294)"/>
<path d="M0 0 C-1.54058233 5.01508715 -3.02931839 9.6147081 -6 14 C-7.55024464 10.89951072 -7.28992015 8.42105782 -7 5 C-3.91489362 0 -3.91489362 0 0 0 Z " fill="#8A3A3D" transform="translate(218,192)"/>
<path d="M0 0 C0.33 2.64 0.66 5.28 1 8 C-2.3114019 7.42906864 -3.75054423 6.45395174 -6 4 C-6.66 3.67 -7.32 3.34 -8 3 C-7.67 2.01 -7.34 1.02 -7 0 C-4.3333581 -1.33332095 -2.83319697 -0.67102033 0 0 Z " fill="#771314" transform="translate(151,141)"/>
<path d="M0 0 C1.0448029 3.13440869 1.15317663 4.02096037 0 7 C-0.99 7.66 -1.98 8.32 -3 9 C-4.07136051 11.30144109 -5.07989717 13.6340213 -6 16 C-7.171875 14.35546875 -7.171875 14.35546875 -8 12 C-6.953125 9.23828125 -6.953125 9.23828125 -5.25 6.3125 C-4.69828125 5.33925781 -4.1465625 4.36601562 -3.578125 3.36328125 C-2 1 -2 1 0 0 Z " fill="#8B3E43" transform="translate(212,168)"/>
<path d="M0 0 C-0.99 1.485 -0.99 1.485 -2 3 C-1.69159401 5.15274948 -1.69159401 5.15274948 -1 7 C-4.40312738 5.94124926 -7.01353231 4.99097846 -10 3 C-11.9896995 2.60986284 -13.99019869 2.26797351 -16 2 C-16 1.67 -16 1.34 -16 1 C-10.61509359 0.08342019 -5.45769811 -0.11138159 0 0 Z " fill="#9F5659" transform="translate(266,283)"/>
<path d="M0 0 C0.33 0 0.66 0 1 0 C1 1.65 1 3.3 1 5 C2.32 5.33 3.64 5.66 5 6 C3.68 7.65 2.36 9.3 1 11 C1 9.68 1 8.36 1 7 C-1.31 8.32 -3.62 9.64 -6 11 C-4.55007731 6.89188572 -2.54592427 3.53144334 0 0 Z " fill="#965151" transform="translate(418,204)"/>
<path d="M0 0 C0.96136276 2.59567945 1.0768013 3.7695961 0.1875 6.4375 C-0.204375 7.283125 -0.59625 8.12875 -1 9 C-1.4021875 10.3303125 -1.4021875 10.3303125 -1.8125 11.6875 C-3 14 -3 14 -5.625 15.3125 C-6.40875 15.539375 -7.1925 15.76625 -8 16 C-8 15.34 -8 14.68 -8 14 C-7.34 14 -6.68 14 -6 14 C-6 12.68 -6 11.36 -6 10 C-5.34 10 -4.68 10 -4 10 C-3.8453125 8.9171875 -3.8453125 8.9171875 -3.6875 7.8125 C-2.94013068 4.75508007 -1.71954811 2.61670365 0 0 Z " fill="#90484A" transform="translate(198,191)"/>
<path d="M0 0 C-1 3 -1 3 -3.0625 4.1875 C-3.701875 4.455625 -4.34125 4.72375 -5 5 C-5 5.99 -5 6.98 -5 8 C-6.32 8 -7.64 8 -9 8 C-8.67 8.66 -8.34 9.32 -8 10 C-10.475 9.01 -10.475 9.01 -13 8 C-12.67 6.68 -12.34 5.36 -12 4 C-11.2575 3.896875 -10.515 3.79375 -9.75 3.6875 C-5.78352735 2.69588184 -4.14528296 0 0 0 Z " fill="#7C1217" transform="translate(349,351)"/>
<path d="M0 0 C2.00720923 0.28674418 4.0085944 0.61866701 6 1 C0.07979859 4.07850473 -5.30713414 6.3170545 -12 7 C-11.67 6.01 -11.34 5.02 -11 4 C-8.75 3.0859375 -8.75 3.0859375 -6 2.375 C-2.71560993 1.712884 -2.71560993 1.712884 0 0 Z " fill="#8D4547" transform="translate(254,211)"/>
<path d="M0 0 C-1.49836105 3.11198065 -3.19933758 6.0534615 -5 9 C-7 7.6875 -7 7.6875 -9 6 C-9 5.01 -9 4.02 -9 3 C-3.375 0 -3.375 0 0 0 Z " fill="#832B2F" transform="translate(210,351)"/>
<path d="M0 0 C0.99 0 1.98 0 3 0 C3.36734694 5.51020408 3.36734694 5.51020408 1.6875 7.75 C0.15968072 8.88171799 -1.41800622 9.94533748 -3 11 C-4.10844919 7.67465243 -3.84454356 5.37817425 -3 2 C-2.34 2.33 -1.68 2.66 -1 3 C-0.67 2.01 -0.34 1.02 0 0 Z " fill="#791114" transform="translate(332,299)"/>
<path d="M0 0 C0.66 0 1.32 0 2 0 C2 2.64 2 5.28 2 8 C1.01 8.495 1.01 8.495 0 9 C-0.72693904 10.97888961 -1.39816251 12.97954558 -2 15 C-2.66 15 -3.32 15 -4 15 C-3.43179252 9.54520815 -2.05362055 5.08940744 0 0 Z " fill="#9B5759" transform="translate(325,278)"/>
<path d="M0 0 C0.99 0.33 1.98 0.66 3 1 C1.61811547 4.21043882 0.07578097 6.04936365 -2.625 8.25 C-3.25664062 8.77078125 -3.88828125 9.2915625 -4.5390625 9.828125 C-5.02117187 10.21484375 -5.50328125 10.6015625 -6 11 C-5.67 9.02 -5.34 7.04 -5 5 C-4.01 5 -3.02 5 -2 5 C-2 4.34 -2 3.68 -2 3 C-2.66 2.67 -3.32 2.34 -4 2 C-3.34 1.67 -2.68 1.34 -2 1 C-1.34 1.33 -0.68 1.66 0 2 C0 1.34 0 0.68 0 0 Z " fill="#944145" transform="translate(302,180)"/>
<path d="M0 0 C0.33 0 0.66 0 1 0 C1 4.29 1 8.58 1 13 C-0.98 11.68 -2.96 10.36 -5 9 C-4 6 -4 6 -2 3 C-1.34 3 -0.68 3 0 3 C0 2.01 0 1.02 0 0 Z " fill="#731014" transform="translate(318,140)"/>
<path d="M0 0 C6.875 1.875 6.875 1.875 8 3 C8.04063832 4.66617115 8.042721 6.33388095 8 8 C7.01 8 6.02 8 5 8 C0 2.65116279 0 2.65116279 0 0 Z " fill="#892F35" transform="translate(144,357)"/>
<path d="M0 0 C3.43927579 1.2419607 6.25207819 2.55740284 9 5 C9 5.66 9 6.32 9 7 C9.66 7 10.32 7 11 7 C11 7.66 11 8.32 11 9 C11.66 9 12.32 9 13 9 C12.67 9.66 12.34 10.32 12 11 C7.25453357 8.48769424 3.57278975 6.11412154 0 2 C0 1.34 0 0.68 0 0 Z " fill="#954E53" transform="translate(299,110)"/>
<path d="M0 0 C0.99 0.185625 1.98 0.37125 3 0.5625 C7.17087678 1.17661683 10.85034269 0.65520905 15 0 C13.35 1.98 11.7 3.96 10 6 C9.67 5.34 9.34 4.68 9 4 C7.35 4 5.7 4 4 4 C4 3.34 4 2.68 4 2 C3.01 2.33 2.02 2.66 1 3 C0.67 2.01 0.34 1.02 0 0 Z " fill="#8D3D41" transform="translate(331,351)"/>
<path d="M0 0 C0 1.32 0 2.64 0 4 C-5.31878406 7.06852926 -10.07100767 7.27049836 -16 6 C-16 5.67 -16 5.34 -16 5 C-15.24074219 4.80664062 -14.48148437 4.61328125 -13.69921875 4.4140625 C-12.70535156 4.15367187 -11.71148437 3.89328125 -10.6875 3.625 C-9.70136719 3.36976563 -8.71523437 3.11453125 -7.69921875 2.8515625 C-4.84512368 1.95113888 -2.97356013 0 0 0 Z " fill="#8F484B" transform="translate(132,287)"/>
<path d="M0 0 C0.33 0.66 0.66 1.32 1 2 C0.34 2 -0.32 2 -1 2 C-0.65213292 3.97536745 -0.65213292 3.97536745 0 6 C0.66 6.33 1.32 6.66 2 7 C0.71034824 8.37562854 -0.62689293 9.70766393 -2 11 C-2.66 11 -3.32 11 -4 11 C-3.67 9.68 -3.34 8.36 -3 7 C-4.65 7 -6.3 7 -8 7 C-6.71034824 5.62437146 -5.37310707 4.29233607 -4 3 C-3.34 3 -2.68 3 -2 3 C-2 2.34 -2 1.68 -2 1 C-1.34 0.67 -0.68 0.34 0 0 Z " fill="#8F4549" transform="translate(384,243)"/>
<path d="M0 0 C0.1875 2.875 0.1875 2.875 0 6 C-3 8 -3 8 -5.1875 7.625 C-5.785625 7.41875 -6.38375 7.2125 -7 7 C-6.67 5.68 -6.34 4.36 -6 3 C-5.34 3 -4.68 3 -4 3 C-4 2.34 -4 1.68 -4 1 C-2 0 -2 0 0 0 Z " fill="#802329" transform="translate(389,242)"/>
<path d="M0 0 C1.10732122 3.32196365 0.85064093 4.68250039 0 8 C-0.33 8.66 -0.66 9.32 -1 10 C-2.65 9.67 -4.3 9.34 -6 9 C-5.01 7.02 -4.02 5.04 -3 3 C-2.34 3 -1.68 3 -1 3 C-0.67 2.01 -0.34 1.02 0 0 Z " fill="#8C393F" transform="translate(111,165)"/>
<path d="M0 0 C2.75 0.8125 2.75 0.8125 5 2 C5 3.32 5 4.64 5 6 C-0.53846154 6.36923077 -0.53846154 6.36923077 -2.875 4.5 C-3.24625 4.005 -3.6175 3.51 -4 3 C-2.3125 1.375 -2.3125 1.375 0 0 Z " fill="#7A1214" transform="translate(192,116)"/>
<path d="M0 0 C2.4375 0.375 2.4375 0.375 5 1 C5.33 1.66 5.66 2.32 6 3 C5.67 3.99 5.34 4.98 5 6 C3.02 6 1.04 6 -1 6 C-1 6.66 -1 7.32 -1 8 C-2.32 7.67 -3.64 7.34 -5 7 C-3.02 5.35 -1.04 3.7 1 2 C0.67 1.34 0.34 0.68 0 0 Z " fill="#761315" transform="translate(209,109)"/>
<path d="M0 0 C0.66 0 1.32 0 2 0 C2.33 0.66 2.66 1.32 3 2 C3.66 2 4.32 2 5 2 C5.33 3.98 5.66 5.96 6 8 C3.69 7.34 1.38 6.68 -1 6 C-0.67 4.02 -0.34 2.04 0 0 Z " fill="#731012" transform="translate(350,261)"/>
<path d="M0 0 C0.33 0 0.66 0 1 0 C1.36923077 4.55384615 1.36923077 4.55384615 -0.5 6.8125 C-0.995 7.204375 -1.49 7.59625 -2 8 C-1.34 8.33 -0.68 8.66 0 9 C-3 11 -3 11 -5 11 C-5.33 11.66 -5.66 12.32 -6 13 C-6.66 12.67 -7.32 12.34 -8 12 C-6.69161864 9.997193 -5.37857806 7.99773901 -4.0625 6 C-3.50272461 5.14148438 -3.50272461 5.14148438 -2.93164062 4.265625 C-1.98055411 2.82614271 -0.99305724 1.41085511 0 0 Z " fill="#9D575A" transform="translate(165,250)"/>
<path d="M0 0 C1.32 0.33 2.64 0.66 4 1 C5.14947895 4.55293493 5.0868937 5.79976669 3.5625 9.3125 C2.7890625 10.6428125 2.7890625 10.6428125 2 12 C1.34 12 0.68 12 0 12 C0 11.01 0 10.02 0 9 C0.66 9 1.32 9 2 9 C2 7.68 2 6.36 2 5 C1.34 5 0.68 5 0 5 C0 3.35 0 1.7 0 0 Z " fill="#80272B" transform="translate(305,233)"/>
<path d="M0 0 C0.66 0.99 1.32 1.98 2 3 C1.67 3.99 1.34 4.98 1 6 C-1.94389782 7.17755913 -2.89953913 7.03348696 -6 6 C-7.32 5.67 -8.64 5.34 -10 5 C-6.7 3.35 -3.4 1.7 0 0 Z " fill="#8E3E41" transform="translate(260,200)"/>
<path d="M0 0 C0.33 0 0.66 0 1 0 C1.4375 2.125 1.4375 2.125 1 5 C-1.04419305 7.39588217 -3.25802299 9.43818868 -6 11 C-6.99 10.67 -7.98 10.34 -9 10 C-7.52417192 8.33037631 -6.04425109 6.6643694 -4.5625 5 C-3.73878906 4.071875 -2.91507812 3.14375 -2.06640625 2.1875 C-1.04353516 1.1046875 -1.04353516 1.1046875 0 0 Z " fill="#873C40" transform="translate(381,185)"/>
<path d="M0 0 C1.32 0.33 2.64 0.66 4 1 C3.01 2.485 3.01 2.485 2 4 C-4.93 3.505 -4.93 3.505 -12 3 C-11.67 2.34 -11.34 1.68 -11 1 C-7.37 1 -3.74 1 0 1 C0 0.67 0 0.34 0 0 Z " fill="#893E3B" transform="translate(270,107)"/>
<path d="M0 0 C3 1 3 1 5 5 C1.7 6.32 -1.6 7.64 -5 9 C-5 8.01 -5 7.02 -5 6 C-3.68 6 -2.36 6 -1 6 C-1.33 4.35 -1.66 2.7 -2 1 C-1.34 0.67 -0.68 0.34 0 0 Z " fill="#964E4F" transform="translate(186,291)"/>
<path d="M0 0 C0.33 0 0.66 0 1 0 C1.33 3.63 1.66 7.26 2 11 C2.99 11.33 3.98 11.66 5 12 C4.34 14.31 3.68 16.62 3 19 C-0.01399879 14.47900181 -0.12108347 11.13967935 -0.0625 5.75 C-0.04896484 4.13351563 -0.04896484 4.13351563 -0.03515625 2.484375 C-0.02355469 1.66453125 -0.01195313 0.8446875 0 0 Z " fill="#91484C" transform="translate(90,205)"/>
<path d="M0 0 C0.33 0.99 0.66 1.98 1 3 C0.34 3 -0.32 3 -1 3 C-0.85691406 4.57201172 -0.85691406 4.57201172 -0.7109375 6.17578125 C-0.59837758 7.55464022 -0.48643036 8.93354929 -0.375 10.3125 C-0.31054688 11.00279297 -0.24609375 11.69308594 -0.1796875 12.40429688 C0.11802847 16.2559972 0.20763723 17.68854416 -2 21 C-3 20 -3 20 -3.11352539 18.23413086 C-3.10828857 17.48526611 -3.10305176 16.73640137 -3.09765625 15.96484375 C-3.09443359 15.15595703 -3.09121094 14.34707031 -3.08789062 13.51367188 C-3.07951172 12.66353516 -3.07113281 11.81339844 -3.0625 10.9375 C-3.05798828 10.08349609 -3.05347656 9.22949219 -3.04882812 8.34960938 C-3.03700373 6.23304337 -3.01906769 4.11651315 -3 2 C-2.01 2 -1.02 2 0 2 C0 1.34 0 0.68 0 0 Z " fill="#711116" transform="translate(154,323)"/>
<path d="M0 0 C-0.33 1.32 -0.66 2.64 -1 4 C-2.32 4 -3.64 4 -5 4 C-5 4.99 -5 5.98 -5 7 C-6.32 6.67 -7.64 6.34 -9 6 C-9 5.34 -9 4.68 -9 4 C-8.34 4 -7.68 4 -7 4 C-7 3.01 -7 2.02 -7 1 C-4.53721199 -0.231394 -2.7204945 -0.07159196 0 0 Z " fill="#80292D" transform="translate(186,293)"/>
<path d="M0 0 C2.08304538 -0.05418326 4.16649768 -0.09287551 6.25 -0.125 C7.99023438 -0.15980469 7.99023438 -0.15980469 9.765625 -0.1953125 C12.82786046 -0.0103949 14.44202751 0.39176977 17 2 C14.43435275 3.28282363 12.48966931 3.20391953 9.625 3.25 C8.19027344 3.28867187 8.19027344 3.28867187 6.7265625 3.328125 C3.62107853 2.95439914 2.29463934 2.06626291 0 0 Z " fill="#721215" transform="translate(216,286)"/>
<path d="M0 0 C2.64 0.33 5.28 0.66 8 1 C8 1.66 8 2.32 8 3 C9.175625 3.185625 9.175625 3.185625 10.375 3.375 C13 4 13 4 15 6 C8.84777564 5.56826496 5.18082051 4.34594658 0 1 C0 0.67 0 0.34 0 0 Z " fill="#8B4547" transform="translate(254,268)"/>
<path d="M0 0 C0.598125 0.20625 1.19625 0.4125 1.8125 0.625 C0.8225 1.12 0.8225 1.12 -0.1875 1.625 C-0.84305119 4.15233235 -0.84305119 4.15233235 -1.1875 6.625 C-2.5075 6.955 -3.8275 7.285 -5.1875 7.625 C-5.375 4.75 -5.375 4.75 -5.1875 1.625 C-2.1875 -0.375 -2.1875 -0.375 0 0 Z " fill="#781B20" transform="translate(380.1875,249.375)"/>
<path d="M0 0 C4.85437999 0.45157023 7.49174013 1.59197613 11 5 C11.33 5.99 11.66 6.98 12 8 C11.01 8.33 10.02 8.66 9 9 C9 8.01 9 7.02 9 6 C7.68 6 6.36 6 5 6 C4.731875 5.195625 4.46375 4.39125 4.1875 3.5625 C3.795625 2.716875 3.40375 1.87125 3 1 C2.01 0.67 1.02 0.34 0 0 Z " fill="#965458" transform="translate(419,166)"/>
<path d="M0 0 C0.66 0.99 1.32 1.98 2 3 C2.99 2.67 3.98 2.34 5 2 C5 2.99 5 3.98 5 5 C0.545 6.485 0.545 6.485 -4 8 C-2.87548273 5.0280615 -1.77706209 2.66559313 0 0 Z " fill="#862F33" transform="translate(217,158)"/>
<path d="M0 0 C0.33 0.99 0.66 1.98 1 3 C-0.5625 6.125 -0.5625 6.125 -3 9 C-6.25 9.875 -6.25 9.875 -9 10 C-8.06409496 8.8944811 -7.12620142 7.79064547 -6.1875 6.6875 C-5.66542969 6.07261719 -5.14335938 5.45773438 -4.60546875 4.82421875 C-3.12827531 3.14575321 -1.59960869 1.56117966 0 0 Z " fill="#904748" transform="translate(121,155)"/>
<path d="M0 0 C1.5625 1.0625 1.5625 1.0625 3 3 C2.6875 6.6875 2.6875 6.6875 2 10 C1.34 9.34 0.68 8.68 0 8 C-0.99 8.33 -1.98 8.66 -3 9 C-3 5 -3 5 -1.5 3.375 C-1.005 2.92125 -0.51 2.4675 0 2 C0 1.34 0 0.68 0 0 Z " fill="#82272B" transform="translate(316,150)"/>
<path d="M0 0 C0.66 0.33 1.32 0.66 2 1 C-0.68058098 4.57410797 -3.42589203 7.31941902 -7 10 C-7.75 8.25 -7.75 8.25 -8 6 C-5.75750892 3.17612234 -3.39790675 1.24589914 0 0 Z " fill="#883A3E" transform="translate(158,129)"/>
<path d="M0 0 C1.65 0 3.3 0 5 0 C5 0.33 5 0.66 5 1 C6.65 1.33 8.3 1.66 10 2 C7.45543849 4.96865509 4.51005335 6.3619751 1 8 C1.33 5.69 1.66 3.38 2 1 C1.34 0.67 0.68 0.34 0 0 Z " fill="#8D4648" transform="translate(164,132)"/>
<path d="M0 0 C2.31 0 4.62 0 7 0 C6.67 1.65 6.34 3.3 6 5 C4.02 5.33 2.04 5.66 0 6 C-1.24546405 3.50907189 -0.7767578 2.58919267 0 0 Z " fill="#771618" transform="translate(319,360)"/>
<path d="M0 0 C0 0.66 0 1.32 0 2 C-0.66 2 -1.32 2 -2 2 C-2 2.66 -2 3.32 -2 4 C-0.68 4.66 0.64 5.32 2 6 C0.02 6.66 -1.96 7.32 -4 8 C-4 7.01 -4 6.02 -4 5 C-4.99 5 -5.98 5 -7 5 C-7.66 4.67 -8.32 4.34 -9 4 C-2.25 0 -2.25 0 0 0 Z " fill="#975050" transform="translate(179,295)"/>
<path d="M0 0 C0.33 0.66 0.66 1.32 1 2 C2.98 2 4.96 2 7 2 C4.48617788 3.67588141 2.17052712 4.94030311 -0.5625 6.1875 C-1.34753906 6.55230469 -2.13257813 6.91710937 -2.94140625 7.29296875 C-3.62074219 7.52628906 -4.30007812 7.75960937 -5 8 C-5.66 7.67 -6.32 7.34 -7 7 C-6.67 6.34 -6.34 5.68 -6 5 C-4.35 5 -2.7 5 -1 5 C-1.33 4.01 -1.66 3.02 -2 2 C-1.34 1.34 -0.68 0.68 0 0 Z " fill="#965658" transform="translate(198,117)"/>
<path d="M0 0 C0.99 0.33 1.98 0.66 3 1 C3 1.66 3 2.32 3 3 C3.99 3.33 4.98 3.66 6 4 C3.03 6.475 3.03 6.475 0 9 C-1.125 3.375 -1.125 3.375 0 0 Z " fill="#974C50" transform="translate(243,338)"/>
<path d="M0 0 C1 3 1 3 1 7 C-0.875 9.25 -0.875 9.25 -3 11 C-3.66 11 -4.32 11 -5 11 C-5 11.99 -5 12.98 -5 14 C-5.66 14 -6.32 14 -7 14 C-5.23570801 9.02790438 -2.6060834 4.56561939 0 0 Z " fill="#975258" transform="translate(303,214)"/>
<path d="M0 0 C-0.99 0.33 -1.98 0.66 -3 1 C-3.73323796 3.01508358 -3.73323796 3.01508358 -4 5 C-5.65 4.67 -7.3 4.34 -9 4 C-9 3.34 -9 2.68 -9 2 C-9.66 1.67 -10.32 1.34 -11 1 C-7.32589215 -0.17571451 -3.83070817 -0.07366746 0 0 Z " fill="#7F1F24" transform="translate(262,122)"/>
<path d="M0 0 C0.66 0 1.32 0 2 0 C0.55922954 3.36179774 -1.24750021 5.59156268 -4 8 C-4.66 8 -5.32 8 -6 8 C-6 6.35 -6 4.7 -6 3 C-3.92446352 2.4465236 -2.15634036 2 0 2 C0 1.34 0 0.68 0 0 Z " fill="#88393E" transform="translate(161,283)"/>
<path d="M0 0 C0.33 0.66 0.66 1.32 1 2 C0.1796875 4.12890625 0.1796875 4.12890625 -1.125 6.5625 C-1.54007813 7.36816406 -1.95515625 8.17382812 -2.3828125 9.00390625 C-4 11 -4 11 -6.6796875 11.77734375 C-7.82824219 11.88755859 -7.82824219 11.88755859 -9 12 C-8.34 11.67 -7.68 11.34 -7 11 C-6.731875 10.46375 -6.46375 9.9275 -6.1875 9.375 C-4.49371803 5.98743606 -2.24052171 3.04437301 0 0 Z " fill="#904448" transform="translate(156,263)"/>
<path d="M0 0 C0.66 0.33 1.32 0.66 2 1 C1.67 2.98 1.34 4.96 1 7 C1.66 7.33 2.32 7.66 3 8 C1.35 8.66 -0.3 9.32 -2 10 C-1.67 8.02 -1.34 6.04 -1 4 C-1.99 3.67 -2.98 3.34 -4 3 C-2.68 2.01 -1.36 1.02 0 0 Z " fill="#9E5659" transform="translate(374,250)"/>
<path d="M0 0 C1.12894876 0.93274109 2.25300876 1.87140122 3.375 2.8125 C4.00148437 3.33457031 4.62796875 3.85664063 5.2734375 4.39453125 C7 6 7 6 9 9 C7.35 8.67 5.7 8.34 4 8 C4 7.34 4 6.68 4 6 C3.34 6 2.68 6 2 6 C1.67 5.34 1.34 4.68 1 4 C0.01 4.495 0.01 4.495 -1 5 C-0.67 3.35 -0.34 1.7 0 0 Z " fill="#93474D" transform="translate(236,232)"/>
<path d="M0 0 C0.99 0.66 1.98 1.32 3 2 C1.35 2 -0.3 2 -2 2 C-2 2.66 -2 3.32 -2 4 C-4.96175123 3.38722388 -6.38058783 2.74627478 -9 1 C-5.64847025 -1.11022243 -3.76699068 -1.15907406 0 0 Z " fill="#791C1F" transform="translate(143,231)"/>
<path d="M0 0 C0.33 2.31 0.66 4.62 1 7 C-1.375 8.0625 -1.375 8.0625 -4 9 C-4.66 8.67 -5.32 8.34 -6 8 C-6 7.34 -6 6.68 -6 6 C-5.34 6 -4.68 6 -4 6 C-4 5.01 -4 4.02 -4 3 C-1.44444444 0 -1.44444444 0 0 0 Z " fill="#771217" transform="translate(302,222)"/>
<path d="M0 0 C0.99 0.33 1.98 0.66 3 1 C2.64950425 4.24208567 2.43778819 5.61527704 -0.0625 7.8125 C-0.701875 8.204375 -1.34125 8.59625 -2 9 C-2.66 8.67 -3.32 8.34 -4 8 C-2.68 5.36 -1.36 2.72 0 0 Z " fill="#7C0F13" transform="translate(156,265)"/>
<path d="M0 0 C0.99 0 1.98 0 3 0 C3 1.65 3 3.3 3 5 C0.50935112 5.68707555 -1.37886292 6 -4 6 C-3.67 4.68 -3.34 3.36 -3 2 C-2.34 2 -1.68 2 -1 2 C-0.67 1.34 -0.34 0.68 0 0 Z " fill="#791B20" transform="translate(400,230)"/>
<path d="M0 0 C1.32 0 2.64 0 4 0 C4 0.66 4 1.32 4 2 C3.34 2 2.68 2 2 2 C2 3.65 2 5.3 2 7 C0.68 7 -0.64 7 -2 7 C-2 5.35 -2 3.7 -2 2 C-1.34 2 -0.68 2 0 2 C0 1.34 0 0.68 0 0 Z " fill="#751316" transform="translate(421,202)"/>
<path d="M0 0 C0.66666667 2 1.33333333 4 2 6 C-0.97 8.475 -0.97 8.475 -4 11 C-3.48964169 6.6109185 -2.47785723 3.66291938 0 0 Z " fill="#914549" transform="translate(292,167)"/>
<path d="M0 0 C0.33 0.66 0.66 1.32 1 2 C1.99 2.33 2.98 2.66 4 3 C2.6875 5 2.6875 5 1 7 C0.01 7 -0.98 7 -2 7 C-2.33 7.66 -2.66 8.32 -3 9 C-3.66 9 -4.32 9 -5 9 C-3.7508258 5.54074837 -2.32472205 2.85306797 0 0 Z " fill="#8A373D" transform="translate(223,149)"/>
<path d="M0 0 C1.32 0.33 2.64 0.66 4 1 C1.525 5.455 1.525 5.455 -1 10 C-2.31223496 6.06329512 -1.24296256 3.87511856 0 0 Z " fill="#8C4447" transform="translate(158,314)"/>
<path d="M0 0 C1.32 0.66 2.64 1.32 4 2 C0.04 3.98 -3.92 5.96 -8 8 C-7.67 6.68 -7.34 5.36 -7 4 C-6.34 4.33 -5.68 4.66 -5 5 C-5 4.34 -5 3.68 -5 3 C-3.35 3 -1.7 3 0 3 C0 2.01 0 1.02 0 0 Z " fill="#8B4142" transform="translate(364,261)"/>
<path d="M0 0 C0.66 0 1.32 0 2 0 C2 1.65 2 3.3 2 5 C0.35 5 -1.3 5 -3 5 C-3 5.66 -3 6.32 -3 7 C-3.99 6.67 -4.98 6.34 -6 6 C-4 4 -2 2 0 0 Z " fill="#771A1D" transform="translate(417,211)"/>
<path d="M0 0 C1.32 0 2.64 0 4 0 C3 3 3 3 0.125 4.75 C-3 6 -3 6 -6 5 C-5.34 4.67 -4.68 4.34 -4 4 C-4 3.34 -4 2.68 -4 2 C-2.68 2 -1.36 2 0 2 C0 1.34 0 0.68 0 0 Z " fill="#893D3D" transform="translate(272,203)"/>
<path d="M0 0 C1.134375 0.020625 2.26875 0.04125 3.4375 0.0625 C2.14784824 1.43812854 0.81060707 2.77016393 -0.5625 4.0625 C-1.2225 4.0625 -1.8825 4.0625 -2.5625 4.0625 C-2.5625 4.7225 -2.5625 5.3825 -2.5625 6.0625 C-3.2225 6.0625 -3.8825 6.0625 -4.5625 6.0625 C-4.605221 4.39638095 -4.60313832 2.72867115 -4.5625 1.0625 C-3.5625 0.0625 -3.5625 0.0625 0 0 Z " fill="#8A3F41" transform="translate(407.5625,178.9375)"/>
<path d="M0 0 C0.66 0.33 1.32 0.66 2 1 C2.33 1.99 2.66 2.98 3 4 C2.360625 4.28875 1.72125 4.5775 1.0625 4.875 C-1.15206079 5.82823451 -1.15206079 5.82823451 -2 8 C-2.66 8 -3.32 8 -4 8 C-4.33 7.01 -4.66 6.02 -5 5 C-3.35 3.35 -1.7 1.7 0 0 Z " fill="#8D3A3F" transform="translate(160,306)"/>
<path d="M0 0 C0.33 1.32 0.66 2.64 1 4 C1.66 4 2.32 4 3 4 C3.33 6.64 3.66 9.28 4 12 C1.27352315 9.64531545 0.01243658 7.4591583 -1 4 C-0.625 1.6875 -0.625 1.6875 0 0 Z " fill="#964A50" transform="translate(84,286)"/>
<path d="M0 0 C1.32 0.66 2.64 1.32 4 2 C4 2.66 4 3.32 4 4 C3.34 4 2.68 4 2 4 C1.67 4.66 1.34 5.32 1 6 C-1.97 5.505 -1.97 5.505 -5 5 C-4.34 4.67 -3.68 4.34 -3 4 C-3 3.34 -3 2.68 -3 2 C-2.01 1.34 -1.02 0.68 0 0 Z " fill="#7E2627" transform="translate(408,222)"/>
<path d="M0 0 C0.33 0.99 0.66 1.98 1 3 C-1.64 3.33 -4.28 3.66 -7 4 C-7 3.01 -7 2.02 -7 1 C-4.53721199 -0.231394 -2.7204945 -0.07159196 0 0 Z " fill="#7E1215" transform="translate(233,215)"/>
<path d="M0 0 C-1.98 0.66 -3.96 1.32 -6 2 C-6 2.66 -6 3.32 -6 4 C-6.66 4 -7.32 4 -8 4 C-8 4.66 -8 5.32 -8 6 C-8.66 6 -9.32 6 -10 6 C-10 4.35 -10 2.7 -10 1 C-3.375 -1.125 -3.375 -1.125 0 0 Z " fill="#9C585D" transform="translate(336,203)"/>
<path d="M0 0 C0.99 0 1.98 0 3 0 C2.71640113 1.4391134 2.42278601 2.87625518 2.125 4.3125 C1.88136719 5.51326172 1.88136719 5.51326172 1.6328125 6.73828125 C1 9 1 9 -1 12 C-1.02712066 10.56260487 -1.04645067 9.12506137 -1.0625 7.6875 C-1.07410156 6.88699219 -1.08570312 6.08648437 -1.09765625 5.26171875 C-1 3 -1 3 0 0 Z " fill="#90484C" transform="translate(110,193)"/>
<path d="M0 0 C0.99 0.33 1.98 0.66 3 1 C2.5206753 5.31392226 1.2542015 7.16569547 -2 10 C-1.85950482 8.52031676 -1.71245174 7.04125484 -1.5625 5.5625 C-1.48128906 4.73878906 -1.40007812 3.91507813 -1.31640625 3.06640625 C-1 1 -1 1 0 0 Z " fill="#8C3B40" transform="translate(117,179)"/>
<path d="M0 0 C2 2 2 2 2.125 5.625 C2.08375 6.73875 2.0425 7.8525 2 9 C0.68 8.67 -0.64 8.34 -2 8 C-1.125 1.125 -1.125 1.125 0 0 Z " fill="#771215" transform="translate(219,177)"/>
<path d="M0 0 C0.66 0.66 1.32 1.32 2 2 C3.31747324 2.69748583 4.64914193 3.36959957 6 4 C4.35 4.33 2.7 4.66 1 5 C0.67 6.65 0.34 8.3 0 10 C-0.33 9.01 -0.66 8.02 -1 7 C-1.66 7 -2.32 7 -3 7 C-2.38722388 4.03824877 -1.74627478 2.61941217 0 0 Z " fill="#771011" transform="translate(403,175)"/>
<path d="M0 0 C0.515625 0.37125 1.03125 0.7425 1.5625 1.125 C-3.310761 2.7162689 -7.24540596 3.33692221 -12.4375 3.125 C-8.5804359 0.55362393 -4.59539006 -1.6496272 0 0 Z " fill="#934F50" transform="translate(196.4375,371.875)"/>
<path d="M0 0 C0.99 0 1.98 0 3 0 C2.55149342 1.81495662 2.09090429 3.62693134 1.625 5.4375 C1.24214844 6.95150391 1.24214844 6.95150391 0.8515625 8.49609375 C0 11 0 11 -2 12 C-1.85831863 10.56208484 -1.71148957 9.1246763 -1.5625 7.6875 C-1.48128906 6.88699219 -1.40007812 6.08648437 -1.31640625 5.26171875 C-1 3 -1 3 0 0 Z " fill="#935053" transform="translate(340,284)"/>
<path d="M0 0 C8.57142857 -0.28571429 8.57142857 -0.28571429 12 2 C9.01002175 3.49498913 6.29957225 3.11577446 3 3 C2.01 2.67 1.02 2.34 0 2 C0 1.34 0 0.68 0 0 Z " fill="#710F12" transform="translate(249,285)"/>
<path d="M0 0 C1.1875 1.625 1.1875 1.625 2 4 C0.625 7.25 0.625 7.25 -1 10 C-1.99 8.68 -2.98 7.36 -4 6 C-3.34 5.01 -2.68 4.02 -2 3 C-1.34 3 -0.68 3 0 3 C0 2.01 0 1.02 0 0 Z " fill="#92464A" transform="translate(300,252)"/>
<path d="M0 0 C0.66 0 1.32 0 2 0 C2.33 0.99 2.66 1.98 3 3 C-1.625 6 -1.625 6 -5 6 C-4.67 4.35 -4.34 2.7 -4 1 C-2.02 1.495 -2.02 1.495 0 2 C0 1.34 0 0.68 0 0 Z " fill="#8A3C3F" transform="translate(187,123)"/>
<path d="M0 0 C0.66 0.33 1.32 0.66 2 1 C2 1.66 2 2.32 2 3 C3.32 3.33 4.64 3.66 6 4 C6 5.32 6 6.64 6 8 C2.535 6.02 2.535 6.02 -1 4 C-0.67 2.68 -0.34 1.36 0 0 Z " fill="#8B3B3E" transform="translate(284,112)"/>
<path d="M0 0 C1.1055189 0.93590504 2.20935453 1.87379858 3.3125 2.8125 C3.92738281 3.33457031 4.54226562 3.85664063 5.17578125 4.39453125 C6.85424679 5.87172469 8.43882034 7.40039131 10 9 C3.50534008 7.65205171 3.50534008 7.65205171 1.0625 4.5 C0 2 0 2 0 0 Z " fill="#925355" transform="translate(156,349)"/>
<path d="M0 0 C0.33 0.66 0.66 1.32 1 2 C1.66 2.33 2.32 2.66 3 3 C1.68 3.33 0.36 3.66 -1 4 C-0.34 4.33 0.32 4.66 1 5 C1 5.66 1 6.32 1 7 C0.01 7.33 -0.98 7.66 -2 8 C-2.66 7.01 -3.32 6.02 -4 5 C-3 2 -3 2 0 0 Z " fill="#7B1013" transform="translate(245,320)"/>
<path d="M0 0 C0 0.99 0 1.98 0 3 C0.99 3.33 1.98 3.66 3 4 C2.67 4.66 2.34 5.32 2 6 C-0.64 5.34 -3.28 4.68 -6 4 C-2.25 0 -2.25 0 0 0 Z " fill="#771115" transform="translate(268,283)"/>
<path d="M0 0 C3.465 1.98 3.465 1.98 7 4 C6.34 5.32 5.68 6.64 5 8 C3.68 6.68 2.36 5.36 1 4 C1.33 3.34 1.66 2.68 2 2 C1.34 2 0.68 2 0 2 C0 1.34 0 0.68 0 0 Z " fill="#954248" transform="translate(261,255)"/>
<path d="M0 0 C0.66 0 1.32 0 2 0 C0.84414715 3.91211733 -0.35534962 6.8745041 -3 10 C-3.33 8.02 -3.66 6.04 -4 4 C-2.68 3.67 -1.36 3.34 0 3 C0 2.01 0 1.02 0 0 Z " fill="#934547" transform="translate(361,241)"/>
<path d="M0 0 C0.99 1.32 1.98 2.64 3 4 C1.515 6.475 1.515 6.475 0 9 C-0.99 8.34 -1.98 7.68 -3 7 C-1.125 2.25 -1.125 2.25 0 0 Z " fill="#943C43" transform="translate(346,235)"/>
<path d="M0 0 C-0.33 0.66 -0.66 1.32 -1 2 C-1.99 2.33 -2.98 2.66 -4 3 C-4 3.66 -4 4.32 -4 5 C-6.31 5.33 -8.62 5.66 -11 6 C-7.57865372 2.33427184 -5.14341528 0 0 0 Z " fill="#A26669" transform="translate(406,168)"/>
<path d="M0 0 C0.33 0.66 0.66 1.32 1 2 C0.01 3.485 0.01 3.485 -1 5 C-1 4.34 -1 3.68 -1 3 C-3.31 3.33 -5.62 3.66 -8 4 C-7.67 3.01 -7.34 2.02 -7 1 C-4.53721199 -0.231394 -2.7204945 -0.07159196 0 0 Z " fill="#7B1415" transform="translate(276,104)"/>
<path d="M0 0 C1.32 0.33 2.64 0.66 4 1 C0.4912812 4.09592835 -2.49197399 5.74194623 -7 7 C-6.67 6.01 -6.34 5.02 -6 4 C-4.66923011 3.65657551 -3.33568021 3.32380126 -2 3 C-1.34 2.01 -0.68 1.02 0 0 Z " fill="#9F6264" transform="translate(219,361)"/>
<path d="M0 0 C2.0625 0.4375 2.0625 0.4375 4 1 C3.34 2.32 2.68 3.64 2 5 C1.01 5 0.02 5 -1 5 C-1 1 -1 1 0 0 Z " fill="#812729" transform="translate(345,354)"/>
<path d="M0 0 C0.99 0 1.98 0 3 0 C3 1.65 3 3.3 3 5 C1.02 5 -0.96 5 -3 5 C-1.6875 2.5 -1.6875 2.5 0 0 Z " fill="#7E2024" transform="translate(164,303)"/>
<path d="M0 0 C0.66 0.99 1.32 1.98 2 3 C0.68 3.33 -0.64 3.66 -2 4 C-2 4.66 -2 5.32 -2 6 C-3.32 6 -4.64 6 -6 6 C-5.6875 4.0625 -5.6875 4.0625 -5 2 C-4.01 1.67 -3.02 1.34 -2 1 C-1.67 1.33 -1.34 1.66 -1 2 C-0.67 1.34 -0.34 0.68 0 0 Z " fill="#7B141B" transform="translate(175,298)"/>
<path d="M0 0 C0.33 0.66 0.66 1.32 1 2 C1.66 2.33 2.32 2.66 3 3 C1.54735962 3.8638129 0.0876837 4.71580454 -1.375 5.5625 C-2.59316406 6.27599609 -2.59316406 6.27599609 -3.8359375 7.00390625 C-4.55007812 7.33261719 -5.26421875 7.66132813 -6 8 C-6.66 7.67 -7.32 7.34 -8 7 C-5.36 4.69 -2.72 2.38 0 0 Z " fill="#9F5B5E" transform="translate(145,276)"/>
<path d="M0 0 C0.33 0.66 0.66 1.32 1 2 C1.66 2.33 2.32 2.66 3 3 C2.01 3.33 1.02 3.66 0 4 C-0.33 5.98 -0.66 7.96 -1 10 C-1.33 10 -1.66 10 -2 10 C-2.6875 6.6875 -2.6875 6.6875 -3 3 C-1.5625 1.0625 -1.5625 1.0625 0 0 Z " fill="#8D4448" transform="translate(347,269)"/>
<path d="M0 0 C0.99 0.33 1.98 0.66 3 1 C3.33 1.99 3.66 2.98 4 4 C3.01 4 2.02 4 1 4 C0.67 4.66 0.34 5.32 0 6 C-0.99 5.67 -1.98 5.34 -3 5 C-2.625 3.0625 -2.625 3.0625 -2 1 C-1.34 0.67 -0.68 0.34 0 0 Z " fill="#781216" transform="translate(364,258)"/>
<path d="M0 0 C0.66 0.33 1.32 0.66 2 1 C1.67 1.66 1.34 2.32 1 3 C1.39938767 5.09821215 1.39938767 5.09821215 2 7 C-0.97 6.505 -0.97 6.505 -4 6 C-2.25 1.125 -2.25 1.125 0 0 Z " fill="#761016" transform="translate(180,229)"/>
<path d="M0 0 C0.66 0.33 1.32 0.66 2 1 C2.625 3.0625 2.625 3.0625 3 5 C1.02 5.33 -0.96 5.66 -3 6 C-3 6.66 -3 7.32 -3 8 C-3.66 7.67 -4.32 7.34 -5 7 C-4.67 6.34 -4.34 5.68 -4 5 C-3.34 5 -2.68 5 -2 5 C-1.34 3.35 -0.68 1.7 0 0 Z " fill="#925052" transform="translate(408,218)"/>
<path d="M0 0 C2.1875 0.3125 2.1875 0.3125 4 1 C3.01 2.98 2.02 4.96 1 7 C0.67 6.01 0.34 5.02 0 4 C-0.99 3.67 -1.98 3.34 -3 3 C-1.75 1.4375 -1.75 1.4375 0 0 Z " fill="#9D6169" transform="translate(160,214)"/>
<path d="M0 0 C0.99 0.33 1.98 0.66 3 1 C1.25 8.75 1.25 8.75 -1 11 C-0.67 7.37 -0.34 3.74 0 0 Z " fill="#9A5A5D" transform="translate(428,190)"/>
<path d="M0 0 C0.66 0.66 1.32 1.32 2 2 C-0.31 3.32 -2.62 4.64 -5 6 C-5.66 5.34 -6.32 4.68 -7 4 C-4.86535088 1.54515351 -3.29279709 0.31865778 0 0 Z " fill="#83292E" transform="translate(389,180)"/>
<path d="M0 0 C-0.66 1.32 -1.32 2.64 -2 4 C-2 3.34 -2 2.68 -2 2 C-2.5775 2.226875 -3.155 2.45375 -3.75 2.6875 C-6 3 -6 3 -8.25 1.5625 C-8.8275 1.046875 -9.405 0.53125 -10 0 C-6.30458414 -0.95024979 -3.69541586 -0.95024979 0 0 Z " fill="#7A151A" transform="translate(224,108)"/>
<path d="M0 0 C0.33 0 0.66 0 1 0 C1 1.65 1 3.3 1 5 C1.66 5 2.32 5 3 5 C2.67 5.99 2.34 6.98 2 8 C1.67 7.34 1.34 6.68 1 6 C-1.52733235 5.34444881 -1.52733235 5.34444881 -4 5 C-2.69254251 3.31295807 -1.35827971 1.64639965 0 0 Z " fill="#8F4549" transform="translate(355,341)"/>
<path d="M0 0 C-2.93828597 2.50298434 -5.17902761 3.46930939 -9 4 C-8.1875 2.0625 -8.1875 2.0625 -7 0 C-3.86650268 -1.04449911 -3.01031744 -0.93423645 0 0 Z " fill="#8E484A" transform="translate(143,300)"/>
<path d="M0 0 C0.66 0 1.32 0 2 0 C2 0.66 2 1.32 2 2 C2.66 2 3.32 2 4 2 C4 2.66 4 3.32 4 4 C3.34 4 2.68 4 2 4 C2 4.66 2 5.32 2 6 C2.66 6.33 3.32 6.66 4 7 C2.35 7.33 0.7 7.66 -1 8 C-0.67 5.36 -0.34 2.72 0 0 Z " fill="#8D343A" transform="translate(250,246)"/>
<path d="M0 0 C0.99 0.33 1.98 0.66 3 1 C2.67 2.32 2.34 3.64 2 5 C0.35 4.67 -1.3 4.34 -3 4 C-2.67 3.01 -2.34 2.02 -2 1 C-1.34 0.67 -0.68 0.34 0 0 Z " fill="#751B1F" transform="translate(151,224)"/>
<path d="M0 0 C-0.99 0 -1.98 0 -3 0 C-3 1.65 -3 3.3 -3 5 C-4.32 4.67 -5.64 4.34 -7 4 C-6.67 3.34 -6.34 2.68 -6 2 C-6.99 1.34 -7.98 0.68 -9 0 C-5.62182575 -0.84454356 -3.32534757 -1.10844919 0 0 Z " fill="#96464A" transform="translate(229,214)"/>
<path d="M0 0 C0.33 0.66 0.66 1.32 1 2 C-0.65 3.98 -2.3 5.96 -4 8 C-5.32 7.67 -6.64 7.34 -8 7 C-3.25 3 -3.25 3 -1 3 C-0.67 2.01 -0.34 1.02 0 0 Z " fill="#8C4047" transform="translate(277,187)"/>
<path d="M0 0 C2.64 0 5.28 0 8 0 C8 0.99 8 1.98 8 3 C8.66 3.33 9.32 3.66 10 4 C6.38970831 4 3.44193324 3.03907418 0 2 C0 1.34 0 0.68 0 0 Z " fill="#93484A" transform="translate(416,175)"/>
<path d="M0 0 C0 3 0 3 -1.1875 4.625 C-3.41406801 6.31412056 -5.25851328 6.62952882 -8 7 C-5.42215154 4.35247996 -3.08351902 2.05567935 0 0 Z " fill="#8D494B" transform="translate(138,142)"/>
<path d="M0 0 C0.66 0.66 1.32 1.32 2 2 C1.875 3.9375 1.875 3.9375 1 6 C-1.0625 7.75 -1.0625 7.75 -3 9 C-2.30058404 5.85262818 -1.23921302 2.97411124 0 0 Z " fill="#761215" transform="translate(145,331)"/>
<path d="M0 0 C0 3.30941204 -0.40339294 5.11090151 -2 8 C-4.625 8.8125 -4.625 8.8125 -7 9 C-6.02180976 7.68677212 -5.0424189 6.37443848 -4.0625 5.0625 C-3.51722656 4.33160156 -2.97195312 3.60070312 -2.41015625 2.84765625 C-1 1 -1 1 0 0 Z " fill="#984F53" transform="translate(240,322)"/>
<path d="M0 0 C0.95465783 2.16967689 1.14401212 3.56328793 0.3984375 5.82421875 C-0.35870385 7.5684743 -1.17609198 9.28627131 -2 11 C-2.66 10.34 -3.32 9.68 -4 9 C-4 6 -4 6 -3 3 C-2.34 3 -1.68 3 -1 3 C-0.67 2.01 -0.34 1.02 0 0 Z " fill="#8E3F43" transform="translate(154,312)"/>
<path d="M0 0 C0.33 0.66 0.66 1.32 1 2 C0.22265625 3.7265625 0.22265625 3.7265625 -0.9375 5.625 C-1.618125 6.73875 -2.29875 7.8525 -3 9 C-3.96516243 5.99727245 -4.22393475 3.95784231 -3 1 C-2.01 0.67 -1.02 0.34 0 0 Z " fill="#9B5A60" transform="translate(287,282)"/>
<path d="M0 0 C1.65 0.33 3.3 0.66 5 1 C5 1.99 5 2.98 5 4 C3.02 4 1.04 4 -1 4 C-0.67 2.68 -0.34 1.36 0 0 Z " fill="#7F1112" transform="translate(273,266)"/>
<path d="M0 0 C0 0.66 0 1.32 0 2 C2.475 2.99 2.475 2.99 5 4 C3.02 4.99 3.02 4.99 1 6 C0.34 5.01 -0.32 4.02 -1 3 C-3.05925139 2.27617533 -3.05925139 2.27617533 -5 2 C-2 0 -2 0 0 0 Z " fill="#944B50" transform="translate(367,256)"/>
<path d="M0 0 C0.66 0.33 1.32 0.66 2 1 C2 1.66 2 2.32 2 3 C2.66 3 3.32 3 4 3 C4 3.66 4 4.32 4 5 C4.66 5.33 5.32 5.66 6 6 C4.68 6 3.36 6 2 6 C2 5.34 2 4.68 2 4 C0.35 4 -1.3 4 -3 4 C-3 3.34 -3 2.68 -3 2 C-2.01 2 -1.02 2 0 2 C0 1.34 0 0.68 0 0 Z " fill="#8E4144" transform="translate(111,224)"/>
<path d="M0 0 C1.32 0 2.64 0 4 0 C3.67 1.65 3.34 3.3 3 5 C1.68 4.67 0.36 4.34 -1 4 C-0.67 2.68 -0.34 1.36 0 0 Z " fill="#7C2B33" transform="translate(156,218)"/>
<path d="M0 0 C0 0.66 0 1.32 0 2 C-3.63 2 -7.26 2 -11 2 C-4.31914894 -1.34042553 -4.31914894 -1.34042553 0 0 Z " fill="#975457" transform="translate(241,211)"/>
<path d="M0 0 C0.98120464 3.05263664 0.98120464 4.94736336 0 8 C-0.66 8 -1.32 8 -2 8 C-2 8.66 -2 9.32 -2 10 C-2.66 10 -3.32 10 -4 10 C-3.29445932 6.33118845 -1.72264494 3.29549466 0 0 Z " fill="#955357" transform="translate(203,181)"/>
<path d="M0 0 C1.32 0.66 2.64 1.32 4 2 C2.125 6.75 2.125 6.75 1 9 C0.34 9 -0.32 9 -1 9 C-1 8.01 -1 7.02 -1 6 C-0.34 6 0.32 6 1 6 C0.67 4.02 0.34 2.04 0 0 Z " fill="#8D4449" transform="translate(226,167)"/>
<path d="M0 0 C1.98 0 3.96 0 6 0 C3.51047079 2.66735273 1.36591866 4.55746343 -2 6 C-2 5.01 -2 4.02 -2 3 C-1.34 3 -0.68 3 0 3 C0 2.01 0 1.02 0 0 Z " fill="#9B5E5C" transform="translate(158,140)"/>
<path d="M0 0 C0 0.66 0 1.32 0 2 C-2.97 2.66 -5.94 3.32 -9 4 C-9 3.01 -9 2.02 -9 1 C-5.94152152 0.45627049 -3.11227195 0 0 0 Z " fill="#915255" transform="translate(217,114)"/>
<path d="M0 0 C0.66 1.32 1.32 2.64 2 4 C-1.63 3.34 -5.26 2.68 -9 2 C-5.23312136 0.11656068 -3.97041037 -0.22057835 0 0 Z " fill="#873035" transform="translate(196,114)"/>
<path d="M0 0 C1.41687119 4.25061356 0.19320039 6.71851625 -1 11 C-1.33 11 -1.66 11 -2 11 C-2.33 8.03 -2.66 5.06 -3 2 C-2.01 1.34 -1.02 0.68 0 0 Z " fill="#9A5759" transform="translate(331,315)"/>
<path d="M0 0 C0.33 0.66 0.66 1.32 1 2 C1.66 2 2.32 2 3 2 C2.1875 4.4375 2.1875 4.4375 1 7 C0.01 7.33 -0.98 7.66 -2 8 C-1.125 2.25 -1.125 2.25 0 0 Z " fill="#780E13" transform="translate(155,312)"/>
<path d="M0 0 C0.99 0.33 1.98 0.66 3 1 C2.67 3.31 2.34 5.62 2 8 C1.34 8 0.68 8 0 8 C0 5.33333333 0 2.66666667 0 0 Z " fill="#995D62" transform="translate(91,263)"/>
<path d="M0 0 C0.66 0.33 1.32 0.66 2 1 C1.625 2.9375 1.625 2.9375 1 5 C0.01 5.495 0.01 5.495 -1 6 C-1 5.34 -1 4.68 -1 4 C-1.99 4 -2.98 4 -4 4 C-4 3.34 -4 2.68 -4 2 C-2.125 0.9375 -2.125 0.9375 0 0 Z " fill="#771315" transform="translate(284,257)"/>
<path d="M0 0 C2.125 0.375 2.125 0.375 4 1 C3.01 1.495 3.01 1.495 2 2 C2 2.66 2 3.32 2 4 C1.34 4 0.68 4 0 4 C0.33 4.99 0.66 5.98 1 7 C0.34 7 -0.32 7 -1 7 C-1.625 4.625 -1.625 4.625 -2 2 C-1.34 1.34 -0.68 0.68 0 0 Z " fill="#80262C" transform="translate(391,237)"/>
<path d="M0 0 C-0.33 2.31 -0.66 4.62 -1 7 C-2.65 5.35 -4.3 3.7 -6 2 C-2.25 0 -2.25 0 0 0 Z " fill="#8B3A3E" transform="translate(223,235)"/>
<path d="M0 0 C0.99 0 1.98 0 3 0 C1.8141763 3.37503669 0.72426311 5.64722731 -2 8 C-2 6.02 -2 4.04 -2 2 C-1.34 2 -0.68 2 0 2 C0 1.34 0 0.68 0 0 Z " fill="#9D5A5A" transform="translate(380,209)"/>
<path d="M0 0 C1.32 0.33 2.64 0.66 4 1 C3.37240135 3.92879371 2.41377341 6.36095629 1 9 C-0.4783226 6.04335481 -0.06032783 3.25770263 0 0 Z " fill="#995157" transform="translate(211,197)"/>
<path d="M0 0 C2.31 0 4.62 0 7 0 C7.33 1.32 7.66 2.64 8 4 C5.125 3.6875 5.125 3.6875 2 3 C1.34 2.01 0.68 1.02 0 0 Z " fill="#A66968" transform="translate(257,121)"/>
<path d="M0 0 C0 1.65 0 3.3 0 5 C-2.31 4.34 -4.62 3.68 -7 3 C-3.375 0 -3.375 0 0 0 Z " fill="#852F34" transform="translate(283,110)"/>
<path d="M0 0 C1.98 0.495 1.98 0.495 4 1 C3 4 3 4 2 6 C1.01 5.67 0.02 5.34 -1 5 C-0.67 3.35 -0.34 1.7 0 0 Z " fill="#761317" transform="translate(351,346)"/>
<path d="M0 0 C0.33 1.32 0.66 2.64 1 4 C-2 5 -2 5 -5 4 C-4.67 3.01 -4.34 2.02 -4 1 C-1.9375 0.3125 -1.9375 0.3125 0 0 Z " fill="#8E2A2F" transform="translate(325,291)"/>
<path d="M0 0 C0 0.99 0 1.98 0 3 C-2.57213134 4.61949011 -3.67669159 5.04408751 -6.75 4.625 C-7.4925 4.41875 -8.235 4.2125 -9 4 C-6.06279492 2.47700477 -3.0831351 1.19899698 0 0 Z " fill="#863E41" transform="translate(249,206)"/>
<path d="M0 0 C1.35432675 1.31200404 2.68733482 2.64631404 4 4 C4 4.33 4 4.66 4 5 C1.69 4.67 -0.62 4.34 -3 4 C-2.01 2.68 -1.02 1.36 0 0 Z " fill="#7F111A" transform="translate(281,194)"/>
<path d="M0 0 C1.98 0.495 1.98 0.495 4 1 C3.67 2.65 3.34 4.3 3 6 C1.68 5.67 0.36 5.34 -1 5 C-1 4.34 -1 3.68 -1 3 C-0.34 3 0.32 3 1 3 C0.67 2.01 0.34 1.02 0 0 Z " fill="#791318" transform="translate(292,186)"/>
<path d="M0 0 C0.99 0.33 1.98 0.66 3 1 C1.68 3.64 0.36 6.28 -1 9 C-1.33 8.34 -1.66 7.68 -2 7 C-2.66 6.67 -3.32 6.34 -4 6 C-3.34 6 -2.68 6 -2 6 C-2 5.01 -2 4.02 -2 3 C-1.34 3 -0.68 3 0 3 C0 2.01 0 1.02 0 0 Z " fill="#82363A" transform="translate(223,177)"/>
<path d="M0 0 C0.66 1.32 1.32 2.64 2 4 C0.68 4 -0.64 4 -2 4 C-2.33 4.99 -2.66 5.98 -3 7 C-3.99 6.67 -4.98 6.34 -6 6 C-4.02 4.02 -2.04 2.04 0 0 Z " fill="#8B454A" transform="translate(238,132)"/>
<path d="M0 0 C2.97 0.495 2.97 0.495 6 1 C6 1.66 6 2.32 6 3 C4.02 3.66 2.04 4.32 0 5 C0 3.33333333 0 1.66666667 0 0 Z " fill="#8A4545" transform="translate(339,358)"/>
<path d="M0 0 C1.98 0.99 1.98 0.99 4 2 C3.67 3.32 3.34 4.64 3 6 C2.01 5.67 1.02 5.34 0 5 C0 3.35 0 1.7 0 0 Z " fill="#7D2324" transform="translate(356,341)"/>
<path d="M0 0 C1 3 1 3 0 6 C-1.65 6 -3.3 6 -5 6 C-3.35 4.02 -1.7 2.04 0 0 Z " fill="#8E4348" transform="translate(229,334)"/>
<path d="M0 0 C0.66 0.33 1.32 0.66 2 1 C1.34 3.97 0.68 6.94 0 10 C-0.33 8.68 -0.66 7.36 -1 6 C-1.33 5.01 -1.66 4.02 -2 3 C-1.34 2.01 -0.68 1.02 0 0 Z " fill="#975257" transform="translate(333,304)"/>
<path d="M0 0 C1 2 1 2 0.0625 5.125 C-0.288125 6.07375 -0.63875 7.0225 -1 8 C-1.66 8 -2.32 8 -3 8 C-2.74438677 5.6568787 -2.40729228 3.32156597 -2 1 C-1.34 0.67 -0.68 0.34 0 0 Z " fill="#8A494D" transform="translate(324,285)"/>
<path d="M0 0 C2.00720923 0.28674418 4.0085944 0.61866701 6 1 C6 1.99 6 2.98 6 4 C4.35 4 2.7 4 1 4 C1 3.34 1 2.68 1 2 C0.34 1.67 -0.32 1.34 -1 1 C-0.67 0.67 -0.34 0.34 0 0 Z " fill="#8B3233" transform="translate(318,276)"/>
<path d="M0 0 C1.65 0 3.3 0 5 0 C4.67 1.98 4.34 3.96 4 6 C2 4.6875 2 4.6875 0 3 C0 2.01 0 1.02 0 0 Z " fill="#843338" transform="translate(226,244)"/>
<path d="M0 0 C1.32 0.66 2.64 1.32 4 2 C3.01 3.485 3.01 3.485 2 5 C1.34 5 0.68 5 0 5 C-0.33 5.66 -0.66 6.32 -1 7 C-1.625 4.625 -1.625 4.625 -2 2 C-1.34 1.34 -0.68 0.68 0 0 Z " fill="#8C3A42" transform="translate(394,189)"/>
<path d="M0 0 C0.66 1.32 1.32 2.64 2 4 C0.68 5.32 -0.64 6.64 -2 8 C-2.33 6.68 -2.66 5.36 -3 4 C-2.34 4 -1.68 4 -1 4 C-0.67 2.68 -0.34 1.36 0 0 Z " fill="#751015" transform="translate(221,154)"/>
<path d="M0 0 C0.99 0.99 1.98 1.98 3 3 C1.68 3.99 0.36 4.98 -1 6 C-1.66 5.34 -2.32 4.68 -3 4 C-2.01 2.68 -1.02 1.36 0 0 Z " fill="#923D40" transform="translate(252,130)"/>
<path d="M0 0 C0 0.99 0 1.98 0 3 C-3 5 -3 5 -5.1875 4.625 C-5.785625 4.41875 -6.38375 4.2125 -7 4 C-4.69 2.68 -2.38 1.36 0 0 Z " fill="#894448" transform="translate(250,124)"/>
<path d="M0 0 C0.66 0 1.32 0 2 0 C2 0.66 2 1.32 2 2 C2.66 2 3.32 2 4 2 C3.34 3.65 2.68 5.3 2 7 C1.34 7 0.68 7 0 7 C0 4.69 0 2.38 0 0 Z " fill="#954F53" transform="translate(256,325)"/>
<path d="M0 0 C0.99 0 1.98 0 3 0 C1.92598892 2.91517292 1.22189824 4.77810176 -1 7 C-1.04254356 5.00045254 -1.04080783 2.99958364 -1 1 C-0.67 0.67 -0.34 0.34 0 0 Z " fill="#91464B" transform="translate(275,300)"/>
<path d="M0 0 C0.33 0 0.66 0 1 0 C1.66 3.63 2.32 7.26 3 11 C2.01 10.34 1.02 9.68 0 9 C-0.29296875 6.8359375 -0.29296875 6.8359375 -0.1875 4.375 C-0.16042969 3.55773437 -0.13335937 2.74046875 -0.10546875 1.8984375 C-0.05326172 0.95871094 -0.05326172 0.95871094 0 0 Z " fill="#9C5656" transform="translate(91,272)"/>
<path d="M0 0 C0.66 0.99 1.32 1.98 2 3 C0.625 5.5 0.625 5.5 -1 8 C-1.66 8 -2.32 8 -3 8 C-1.125 2.25 -1.125 2.25 0 0 Z " fill="#985B5E" transform="translate(283,251)"/>
<path d="M0 0 C0.66 0.33 1.32 0.66 2 1 C1.01 2.485 1.01 2.485 0 4 C0 4.66 0 5.32 0 6 C-1.32 5.67 -2.64 5.34 -4 5 C-4 4.34 -4 3.68 -4 3 C-3.34 3 -2.68 3 -2 3 C-2 2.34 -2 1.68 -2 1 C-1.34 0.67 -0.68 0.34 0 0 Z " fill="#761218" transform="translate(387,242)"/>
<path d="M0 0 C1.32 0.66 2.64 1.32 4 2 C2.02 3.32 0.04 4.64 -2 6 C-2.33 4.68 -2.66 3.36 -3 2 C-1.68 2.33 -0.36 2.66 1 3 C0.67 2.01 0.34 1.02 0 0 Z " fill="#944549" transform="translate(148,228)"/>
<path d="M0 0 C0.66 0.33 1.32 0.66 2 1 C1.67 2.65 1.34 4.3 1 6 C-0.32 6.33 -1.64 6.66 -3 7 C-2.01 4.69 -1.02 2.38 0 0 Z " fill="#8C3F46" transform="translate(188,209)"/>
<path d="M0 0 C0.185625 0.9590625 0.185625 0.9590625 0.375 1.9375 C0.684375 2.9584375 0.684375 2.9584375 1 4 C1.66 4.33 2.32 4.66 3 5 C1.02 5.66 -0.96 6.32 -3 7 C-2.38722388 4.03824877 -1.74627478 2.61941217 0 0 Z " fill="#8D484B" transform="translate(363,207)"/>
<path d="M0 0 C2.475 0.99 2.475 0.99 5 2 C4.34 3.32 3.68 4.64 3 6 C2.67 5.34 2.34 4.68 2 4 C-0.01669827 2.86649466 -0.01669827 2.86649466 -2 2 C-1.34 1.34 -0.68 0.68 0 0 Z " fill="#91373E" transform="translate(241,129)"/>
</svg>
